<?xml version="1.0" encoding="UTF-8"?>
<svg id="Layer_1" xmlns="http://www.w3.org/2000/svg" version="1.1" viewBox="0 0 2836 2203.6">
  <!-- Generator: Adobe Illustrator 29.8.6, SVG Export Plug-In . SVG Version: 2.1.1 Build 1)  -->
  <defs>
    <style>
      .st0 {
        fill: #8c8c8c;
      }

      .st0, .st1, .st2, .st3, .st4, .st5, .st6, .st7, .st8, .st9, .st10, .st11, .st12, .st13, .st14, .st15, .st16, .st17, .st18, .st19, .st20, .st21, .st22, .st23, .st24, .st25, .st26 {
        fill-rule: evenodd;
      }

      .st1 {
        fill: #5e5e5e;
      }

      .st2 {
        fill: #d63d12;
      }

      .st3 {
        fill: #e1e1e1;
      }

      .st4 {
        fill: #bfab24;
      }

      .st5 {
        fill: #999;
      }

      .st6 {
        fill: #94290d;
      }

      .st7 {
        fill: #454545;
      }

      .st8 {
        fill: #030303;
      }

      .st9 {
        fill: #e3e3e3;
      }

      .st10 {
        fill: #949494;
      }

      .st11 {
        fill: #ccc;
      }

      .st12 {
        fill: #94fde1;
      }

      .st13 {
        fill: #616161;
      }

      .st14 {
        fill: #363636;
      }

      .st15 {
        fill: #969696;
      }

      .st16 {
        fill: #1f380a;
      }

      .st17 {
        fill: #424242;
      }

      .st18 {
        fill: #91290d;
      }

      .st19 {
        fill: #525252;
      }

      .st20 {
        fill: #8f290d;
      }

      .st21 {
        fill: #f2de57;
      }

      .st23 {
        fill: #d93d12;
      }

      .st24 {
        fill: #383838;
      }

      .st25 {
        fill: #bfad24;
      }

      .st26 {
        fill: #d9d9d9;
      }
    </style>
  </defs>
  <path class="st8" d="M1471.8,2166.2c9.7-13.3.4-13.9,20.3-20.2-3.9,9.4-10.3,19.8-20.3,20.2ZM1459.1,2169.5h-81.8c-8.3-22.7-14-21.9-10.7-49.8,4.7-38.3,10-75.1,18.8-112.3,4-16.7,1.7-11.1,14.5-18.5,19.7-11.3.2-16.5,18.1-16.5s-.8,4.3,16.3,15.6c12.7,8.4,11.5.5,15.8,17.1,5.4,20.5,7.7,36,11,55.5,3.3,19.2,5.7,36.1,8,56.7,3.6,32.2-1,26.2-10.1,52.2ZM1343.8,2145.9c20.1,6.3,10.7,6.6,20.4,20.3-10.1-.4-16.6-10.8-20.4-20.3ZM1465,1977.1c8.4,7.1,11.1,25,13.4,35.7,7,33.7,13.9,74.1,16.5,108.5,1,13.6,1.1,9.7-7.4,15.1-6.5-6.2-5.8-8.9-6.6-18.7-2.7-32-9.6-75.1-17.6-106.5-5.3-20.6-9.8-21,1.7-34.1ZM1348.5,2136.5c-8.5-5.4-8.4-1.5-7.3-15.1,1.8-23.7,13.2-130.6,29.9-144.2,13.9,15.7,1.5,27.6-7.2,75.6-2.2,11.9-4.9,30.1-6.4,42.8l-3.4,32.1c-4.6,15.6.3,3.4-5.5,8.8ZM1438.2,1971c0-7.6,12-18.2,15.7-21.1,7.2,5.2,5.6,4.4,7.9,12.8-6.8,9.5-8.7,12.2-21.6,16.3-1.3-3.5-2-3.1-2-8ZM1382.1,1950c8,6.1,18.7,15.3,13.7,29-13-4-14.8-6.7-21.6-16.3,2.3-8.4.6-7.6,7.9-12.8ZM1409.7,1960.6c-6.5-3.6-11-11.3-13.5-16.5h43.6c-9.4,19.5-13.4,16.5-30.1,16.5ZM1482.7,1822.8l.6-30.3c17.5,14.6,28.3,80.1,32.1,99.9,4.2,21.9,10.5,84.6,8.3,109.1l-2.2,10c-.1-.4-.5,1.6-.9,2.3-.6,15.6-11,70.7-17,78.2-5.5-15.4-8.3-86.6-29.5-133-15.8-34.4-9,3.4,1.3-60.7,3.3-20.4,8.7-54.9,7.3-75.5ZM1332.3,2092.1c-6.7-8.1-14-55.3-17.3-70.8-11.1-52,6.6-157.3,26.8-212.1,3-8.2,4.8-11.7,10.8-16.7.4,50.2,2.3,93.9,16.1,140.1,6,20.3-7.7,14.7-23.7,81.9-2.5,10.6-5.1,23.6-6.9,36.6-1,7.3-4.5,37-5.9,41ZM1885.1,1932.3c8-8.4,17.6-17.3,26.4-23.5,8.3-5.8,7.5-4.5,14.4-10.5,14.9-13,58.9-51.7,70.6-55.7,2.5,21.3,6.8,43.1,25.6,49.9-20.2,12.6-37.9,25-58.5,38-16.3,10.2-49,33.3-59,34.8-11.5-5.9-17.2-15.9-19.6-32.9ZM813.9,1892.5c18.8-6.9,23.1-28.6,25.6-49.9,11.8,4.1,55.7,42.7,70.7,55.7,6.9,6,6.1,4.6,14.4,10.5,8.8,6.2,18.5,15.1,26.4,23.5-2.4,17-8.1,27-19.6,32.9-7.1,1.2-103-63.7-117.4-72.7ZM1773.3,1859.3c.9-11.9,11.8-11.1,23.6-12.7-1,13,4.7,6.8-8.3,11.6-5.8,2.1-8.4,2.6-15.3,1.1ZM1039.2,1846.6c11.8,1.6,22.7.8,23.5,12.7-6.8,1.4-9.7,1.1-15.5-1-11.1-4-7.2-.6-8.1-11.7ZM1364.4,1818.1c0-12.8-1.8-27.5,2.4-39.3,24-4.6,78.4-4.6,103.6,0l1,23.5c.2,39.3-4.5,103-17.4,132.2-21.8-3.6-50.2-3.6-71.9,0-11.1-25-17.1-83-17.6-116.4ZM1514.3,1827.5c4.3,1.6,71.6,40.6,74.5,44.8,14.4,21,5.5,152.2-3.2,159.6-5.9,5-28.3-19.5-38.1-27.2-19.1-15.1-10.5-29.8-13.5-56.3-2.5-22.6-2.9-38.6-7.1-61.1-3.6-19.1-10.6-41.7-12.6-59.8ZM1257.7,2029.9c-2.4,2.6-6.3,19-11.8-17.3-5.5-36.2-11.8-95.7-2.6-130.3,4.3-16.1,3.3-12,17.1-19.2,13.8-7.2,32.1-21.2,44.7-25.5,6.3-6.5,7.8-7.7,16.7-10.1-3.4,25.9-12.3,49.8-15.8,78.1-3.6,29.3-5.4,56-5.5,87.5-5.6,7-35.9,33.4-42.7,36.8ZM1803.1,1983.5c-2.5-11.1-.9-28.2,5.1-36.8.4-.6,153.4-144.8,158-147.2,3.1,2.8,12.3,10.7,16.8,12.9,6.2,3,17.6,3.6,22.9,7.6-11.3,6.6-87.1,66.9-104.6,81.4-33,27.4-62.2,57.1-98.2,82.1ZM853.5,1813.7c5.7-6,10.6-9.2,16.2-14.2,7,3.6,38.8,34.2,46.9,42.3l89,85.2c12.2,11.4,35.2,20.6,27.2,56.4-12.4-8.7-23.5-15.7-30.4-25.8l-85.6-68.9c-29.3-23.8-55.3-50.2-86.7-68.9,3.9-3,1.3-1.4,7.4-3.5,5.4-1.9,0-.2,4.9-1.3,1.5-.3,9-1.1,11.2-1.4ZM2008.4,1835.5c3.4-9.4,49.3-44.3,64.2-47.4-6.3,17.4-11.7,33.7-19.5,52.2-10.6,24.8-11.5,36.3-27.5,41.9-12.2-9.1-16.9-26.3-17.2-46.6ZM810.4,1882.2c-11.9-4.1-11-5.2-17.7-18.8-3.9-8-7.3-17.1-10.6-25-7.2-17.4-12.7-33.6-18.7-50.3,15.7,3.3,63,40.1,64.3,47.4-.3,20.2-5,37.6-17.2,46.6ZM1929,1816.1l-114.9,108.4-10,6.5c10.6-55.4-6.6-95.4,19.5-103.2,6.2-11.4,13.6-11.8,30.9-25.7l94.2-71.4c1,19.5-.5,33.5-1.6,50-1.7,24.2-2.9,25.2-18,35.5ZM918.1,1826.6c-7.5-6.9-15.2-12.5-21.9-19.5-11.7-12.3-9.8-57.3-8.8-76.5l97.2,73.9c23.2,19,40.9,21.4,42.5,42.2,2.2,27.8,0,58.9,4.9,84.2-8.3-3.8-6.2-3.4-14.5-10.5-22.6-19.1-52.7-50.3-77.1-71.9-8.5-7.5-14-14.5-22.3-22.1ZM1494.5,1781.1c-9.7-14.3-9.4-10.7-4-28.7,13.1,9,70.9,73.9,77.7,91.6-8.1-2.8-50.2-27.8-56.7-35.5-4.6-5.5-11.1-18.6-17-27.3ZM1267.6,1844.1c6.3-17.3,65.4-84.1,77.3-90.9,6.4,17.7,3.6,15.3-5.2,28.9-6.1,9.3-11,19.9-17,27.2-7.4,9.1-46.6,32.1-55.1,34.8ZM1652.1,1816.3c-12,22.4-35.6,39.5-44.6,61.3-7.4-5.2-2.1,2.2-7.6-8.6-2-3.9-1.3-3.7-2.3-8.6,8.3-11,18.8-22.3,27.4-33.7,5.6-7.5,6.2-10.9,11.9-18.3,4.5-5.9,7.9-8.8,12.7-14.1,7.4-10.6,23.7-34.1,34-39.2l10.7,5.6-42.2,55.6ZM1206.1,1848.2c-8.1-10.3-14.4-17.4-22.3-27.4l-43.1-61.4c19.3-7.6,20.7,3.6,31.7,17.6,8.7,11.1,17.3,21,25.9,32.3,27.9,36.7,51.5,55.7,29,69.7-6.1-15.7-10.2-16.8-21.1-30.8ZM1987.6,1762.9c12.9,1.3,24.9,21.2,47.5,12.4,6.3-2.5,30.2-19.6,44.9-26.6-3.1,14.2-11.5,16.4-22.5,24-44.8,30.6-54.7,42-86.3,15.8,3.3-8.3,10.6-20.2,16.4-25.6ZM848.4,1762.9c5.8,5.5,13.1,17.4,16.4,25.6-32.5,26.9-43.7,13.5-87.9-16.9-11.1-7.6-17.8-8.8-20.9-22.8,15.3,7.3,38.7,24.2,44.9,26.6,22.6,8.8,34.6-11.2,47.5-12.4ZM1357.5,1747.1c92.9-6.1,28.2-6.1,121.1,0-.5,10.3-1.6,12.4-6.1,20.9-34.9-6-74.1-6-108.9,0-4.5-8.6-5.6-10.6-6.1-20.9ZM1958.2,1778.9c2.8-18.8,2.1-27.1,2.5-45.8.3-15.8,4.6-19.8,19.5-26.4,0,11.3,1.9,35.3-1.6,44.8-1.8,5-12,21.9-20.4,27.3ZM877.8,1778.9c-5.4-3.5-3.5-1.6-7.7-6.5-17.8-20.8-14.5-38.2-14.3-65.7,5.3,2.3,11.2,5,15.1,9.6,7.7,9,2.9,35.5,6.9,62.5ZM2089.3,1764.8c1.3-13.9,2.9-13.3,12.6-19.6,10.1-6.6,9.6-8.3,19.5-12.5-3.9,12.1-19.8,27.8-32.1,32.1ZM746.7,1764.8c-12.6-4.4-28.1-19.7-32.1-32.1,10,4.2,8.7,5.4,19.5,12.5,9.7,6.3,11.3,5.7,12.6,19.6ZM2020.8,1737.3c22.6,0,53.8-40.4,66.1-45.2-.2,43.4-6.3,41.7-34.4,59.2-38.4,23.9-26.3,14.3-60.9.4.2-14-3.5-47.5,4-56.3,3.1,20.3-2.1,42,25.1,42ZM815.2,1737.3c27.2,0,22-21.6,25.1-42,7.6,8.8,3.9,42.4,4,56.3-36.1,14.5-22.4,23.5-62.6-1.4-28-17.4-32.4-16.6-32.6-58.2,6.5,2.6,21.7,18,29.6,25,6.5,5.7,23.7,20.2,36.4,20.2ZM2012.5,1680.8c4.1,5.7,2.7,15.5,3.1,19.5.8,8-.4,10,7.7,10.5,12.9.8,47.8-37.6,66.6-50.6,5.9,11.1-14.5,25.3-30.7,39.8-70.1,62.5-49.4-14.9-46.8-19.1ZM797.6,1703.9c30.5,22.9,18.9-13.2,26-23.1,5.3,8.7,8.5,36.1-2,42.4-15.3,9.3-45.1-24.8-58.8-37.1-8.2-7.3-22.8-14.4-16.6-26,12.7,8.7,21.7,18.8,33.4,28.7,5.9,4.9,10.8,9.6,18.1,15.1ZM2096.2,1619.2c-.1,24.6-6.7,25.4-30.5,45.5-9,7.6-28.4,27.2-38.1,31l.3-26.1,68.3-50.4ZM739.8,1619.2l68.6,50.4-.3,26.1c-6.7-2.7-48-39.2-58.9-48.7-8.4-7.5-9.4-14.6-9.5-27.8ZM2051.1,1637.4l-180.2,136.9c-13.4,10.3-46.7,38.9-58.9,43.3-4.1-32.2,4.3-41.3,17-57.6l64.8-87.3c6.9-10.6,24.4-34.4,32.8-42,15.6-6.7,74.8,7.2,74.3-12.3-18-6.1-44.8,0-65,0,7.2-11.4,11.6-21.3,20.4-27.8l142.2-12.7c0,28.1-.8,23.3-17.4,36.1-10.2,7.9-19,16.6-30.2,23.4ZM869.8,1628.6c12,1.4,25.4,1.1,39.4,2.1,4.5,1.9,87.5,116.4,98.9,130.8,13.1,16.7,18.6,24.8,16.5,56.7-8.1-1.8-11-7-19.6-11.8-14.1-7.9-5.6-2.5-19.6-13.7l-75-57.6c-11.8-9.3-24.2-19.7-36.7-29.5l-38.8-27.7c-10.8-8.2-25.6-23.3-36.8-29.8-12.1-6.9-5.6-1-20-12.9-42.8-35.5-40.8-22.6-40.8-56.8l142.1,13c8.9,5.8,13.2,15.7,20.4,27.8l-34.8-3.3c-29.6-1.4-26.6-.9-30.3,6.7,6.5,9.2,19.7,4.2,35.1,6ZM1958.9,1572.9c14.2-5.5,101.9-9.2,127.4-12.5,4.3-.6,1.9-1.6,8.9-1,6,.5,2.6.4,5.9,2.4-6.4,9.5-22.8,5.8-34.9,7.4l-75.8,6.4c-22.1,1.1-25,8.7-31.5-2.7ZM804.6,1572.6c-21.5-2.5-63.9-2.2-69.7-10.8,6.6-4.1,25.6-1.2,35.8,0,24.4,2.7,96.7,7.4,106.4,11.1-3.3,5.8,1.2,3.1-6.6,5.1l-65.9-5.3ZM1980.3,1556.7c7-8.5,16.7-15.4,24-22.8,26.9,8.3,85.4-1.6,96.6,3,.1,14.2-6.8,11.5-22,12.4-31.9,2-65.8,7.4-98.6,7.4ZM790.2,1552.3c-40.2-2.4-55.2.1-55-15.4,11.2-4.6,69.7,5.3,96.6-3,7.3,7.4,17,14.3,24,22.8-23.3,0-44.2-3.2-65.5-4.5ZM1386.7,1513.6h115.9c-.5,38-6.6,77.4-11,113.1-3.7,30-6.6,81.7-14.1,107.8-16.9.3-41-4.7-59.5-4.7s-42.6,5.1-59.5,4.7c-6.8-23.6-9.4-69.7-12.6-95.6-3.2-26.1-11-71.9-9.4-97.5-5.6-4.7-3.7-11.7-3.2-27.4l53.4-.5ZM1975.6,1404.4c29.7,9.8,20.3,10.7,21,93.8.2,17.6,4.7,34-27.7,50.6l6.7-144.5ZM839.4,1418c4.9-9.3,12.3-10.8,21.6-13.6l6.8,144.4c-12.2-6.1-28.4-18.7-28.4-34v-96.8ZM1515.3,1518.5c25.7,8.5,89.7,35,113.5,27.2l113-33.4c-3.6,17-42.1,143.4-49.8,168.3-4.7,15.2-11.2,42.6-17.6,54.2-10.2-4.5-12.4-10.5-22-8-4.9,10.9,10.7,15.4,17.3,20.3-3.6,9-33.3,43.7-39.6,51.7-12.5,16.1-25.9,39.8-40.7,51.2l-5.9-5.8c-.4-.5-.8-1.2-1.1-1.7-1.8-2.6-2.7-5.1-5-8.7-23.9-37.8-60.8-70-87-97.3l24.8-217.9ZM1161.7,1734.8c-6.2-11.2-13.6-40.7-18.3-56.3-5.2-17.4-11.3-36.8-16.5-55.5-8.4-30.5-27.1-84.2-32.7-110.7,153.9,36.7,83.3,54,226.1,6.2l25.2,217.9c-8.2,8.5-19.1,17.4-28,26.3-13.6,13.5-36,40.9-48.2,56.9-5.4,7.1-7.4,8.5-11.8,15.9-2.8,4.8-1.8,4.4-5.1,8.7-4,5.3-2.6,3.2-5.9,5.8-10.4-7.9-54.7-69.5-71.2-89.7-6.1-7.4-6.1-5.9-9-13.2,4.6-3.4,11-6.1,13.9-8.6,10.6-8.9,3.5-11.5,3.4-11.7-9.6-2.4-11.7,3.5-22,8ZM1514.4,1506.6c0-2.1,2.2-31.4,2.7-33.4,1.7-6.5-3.6-7,7.3-6.4,4.2.3,48,19.8,65.2,20.8l13,45.7c-28.1-5.3-59.2-23.2-88.2-26.7ZM1246.4,1487.6c54.9-3.1,75.9-56.2,75.2,19-29,3.5-60.1,21.4-88.6,26.5l13.4-45.5ZM2030.8,1433.5c8.8.6,34.9,17.3,45.6,22.9,19.8,10.3,24.6,16.1,24.7,45.3-22.5.6-45.9,5.2-71.3,1.6l.9-69.8ZM734.8,1501.7c.2-31.3,5.9-35.3,26.6-46.2,9.9-5.3,35-21.4,44.5-22l.2,70c-30.2,2.1-41.9,1.1-71.2-1.9ZM1603.3,1485.2c20.2-6.5,39.9-10.4,59.4-15.8,18.8-5.2,41.5-12,60-15.1,3.6,15.3,15.6,30.6,17.7,45.2-19.5,7.3-41.8,13.3-62,19.1-19.4,5.6-41.6,12.9-61.5,18-3.5-13.8-14.2-37.4-13.7-51.4ZM1095.6,1499.5c2.1-14.5,14.1-29.9,17.7-45.2l119.4,30.9c.5,13.9-10.1,37.7-13.7,51.4-19.9-5.1-42.1-12.4-61.5-18-20-5.8-42.6-11.8-61.9-19.1ZM1422.7,1486.9c1.6-5.7,27.8-23.6,29.3-24.1,11.5-3.8,41.3-1.3,55.3-1.4l-4.9,38.7c-14.9,4.5-75.3,2.2-94.3,1.6-18.1.5-59,3-74.8-1.6l-4.4-38.6c14.6,0,45.5-3,57.3,2.2,13.7,6,18.6,21.2,36.6,23.3ZM2111.3,1594.6c-4.5-42.6,13.5-106.5-9.5-134.9,9,2.6,10.2,7.8,14.8,17.6,5,10.7,8.3,9.1,8.3,20.9l-2.2,77.6c-.3,15.2,0,14.1-11.3,18.8ZM711.1,1498.2c0-11.1,13.5-35.8,23.1-38.6-22.3,28-6.8,96.7-9.5,135-11.4-4.6-11.1-3.6-11.4-18.8l-2.2-77.6ZM1686.6,1741.5c1.2-9.8,8-27.9,11-38.1,16.7-56.9,37.4-130.1,55.3-185.2,8.3-25.4-14.5-45.3-18.9-68.6,12.5-.9,11.7-1.5,16.7,8.9,8.2,16.9,20.9,39.5,17.3,55-6.6,28.6-66.6,230.1-71.1,235.7l-10.4-7.5ZM1523.7,1434.1c14.1,4.4,25.4,8.8,38.5,13.5,19.4,7,17.7,6.8,22.4,28l-65.8-24.7,4.8-16.8ZM1251.3,1475.7c5.7-26.2,6.4-24.3,61-41.6l3.8,17.2c-11.8,7.7-49.8,19.1-64.8,24.5ZM1136.3,1749.4c-7.3-18.5-41.3-135.7-47.8-160.5-15.9-61.5-37.2-75.6-3.5-133.2,6.6-11.2,3.7-8.6,16.5-5.8-6.8,23.8-27.5,42.9-18.6,70.8,7.7,24,14.8,49.2,22.4,74.1,8.6,27.9,38.9,125.2,43.4,146.7-6.4,5-3.8,5.4-12.5,7.9ZM1708.3,1431.1l7.4,10.9c-11.2,5.8-52.3,14.7-66.9,18.4-12.4,3.1-23.7,6.8-35.4,9.8-16.8,4.4-19,5.2-20.7-13.9l115.6-25.2ZM1243.2,1457.1c-1.5,19.5-5.7,17.1-22.8,12.6-17.9-4.7-93-24-100-27.6,5.1-7,3.4-2.8,6.5-12l116.3,27.1ZM2113,1448.5c5-7.8,22.3-32.7,29.4-35.7,12.1,8.3,16.7,17.7,7.6,31.9-8.2,12.7-12.9,25.4-21.4,30.3-6.5-13.9-11.1-17.6-15.6-26.6ZM1468,1449c10.4-16.3,17.2-19.5,44.4-17.8l-5.3,18.4h-28.3c0,.1-10.8-.6-10.8-.6ZM1329,1449.6l-4.9-18.6c26.9-1.5,33.4,1.8,44,18.5l-39.1.2ZM686,1444.7c-9.1-14.2-4.6-23.7,7.6-31.9,7.7,3.3,10.2,10.1,15.7,17.1,5.5,7,9,11.2,13.8,18.6-4.6,9-9.1,12.6-15.6,26.6-8.4-4.9-12.9-17.1-21.4-30.3ZM2101.4,1517.6c-3.4,7.7-.2,3.5-8.6,6,0,0-11.3,1.4-12.1,1.5-13.9,1.4-63.9,4.4-70-3.5-5.7-7.4-3.3-86.4-2.1-100.6,12.1,3.8,11.8,1.4,10.6,14.5-.9,9.8-1.3,16.7-1.2,27,0,15.5-3.1,37.8,3,49.8,14.1,15.5,66.7-6.5,80.3,5.5ZM1917.7,1617.8c-1.7,8.5-65.8,91.1-76.4,104.7-10.3,13.1-12.5,20.2-24.7,32.8-2.6-39.3,2.1-66.4,17.7-95.2,22.8-42,57.5-112.4,78.6-148.2,9.3-15.8,28.2-56.9,38.6-73.7,3.8-8.8,7.2-11.1,10.3-18.7,1.4,7.1,1.4,126.1-8.8,141.3-11.8,17.6-3.1,8.1-7.9,21.9-.4,1.3-16.7,29.4-27.5,35.1ZM1722.5,1426.7c27.8-1.3,5.4,30.3,0,0ZM1113.5,1426.7c-5.2,30.2-28-1.4,0,0ZM999.7,1656.6c17.1,28.9,22.3,58.3,19.7,98.7-12.4-12.7-15.5-21.1-25.9-34.3l-78.9-103.8c-33.9-42.9-21.9-38.8-27.1-50.5-3.5-7.8-3.3-3.1-5.7-7.4-7.4-13.1-8.9-133.5-7.7-139.8,7,16.9,49.1,90.6,62.3,117.8l63.2,119.3ZM734.6,1517.6c5.1-4.5-6.5-3.5,11.3-3.8l38.8,2.4c38.7.3,33.1,6.9,33.1-73.3s-9.7-16.1,9.4-22.1c1.5,17.4.6,35.1.6,52.5,0,49.4,5.9,52.9-26.5,52.6l-48.7-1.1c-19.7-2.1-16.3-2.9-18.2-7.2ZM1883.1,1420.8c4.5-17,14.6-34.9,21.6-51.9,9.4,1.5,43.6,21.1,50.4,26.8.4.5.6,1.5.6,1.9l.6,3.8c-.2,4-92.6,180.6-98.7,190.8-68.6,115.5-49.6,107.9-58.7,240.1-11.5,5.1-26.9,7-37.2,12.3-1.7,44.2,1.2,31,35.2,23.5l-7.6,122.5c-8.7,7.3-30.6,19-44.9,16.1-5.3-13.4,7.5-143.8,7.5-170.9,0-28.4,5.1-145.3,15.5-167.7,11.6-25.3,110.9-242.9,115.8-247.1ZM1035,1593.7l23.2,51.3c18.8,37,16.4,37.2,18.9,82.8,1.6,28.2,4.4,66.2,6.8,93.9,2.5,29.7,10.6,174.3,8.8,186-16.1.3-39.8-8.8-46.5-20.1l-7.2-119.7c33.8,7.4,36.9,19.6,35.4-23.5-10.3-5.3-25.7-7.2-37.2-12.3-3.1-44.1-2.4-99.2-9.6-140.5-2.9-16.8-83-164.9-100.7-197.4-8.4-15.4-47.2-88.6-49.6-99.5,15.8-4.8,41-23.8,54.1-25.9,17.5,42.9,71.7,160.4,95.1,208.4,3,6.2,5.9,10,8.6,16.5ZM1663.9,1941c-3.3,13.4-48.7,75.3-63.6,85.2-.2-15.4,5.8-39,6.7-57.9,1.1-23.6,3-35.8.4-59.3-2.8-25.9,28.1-44.3,47-76.6l45.6-57.9c5.3,9.6,3.4,17.8,13.8,21.9,13.8-13-9.3-21-1-50.2l47.8-165.5c24.7-88,24.8-86.7,80.1-168.4,5.1-7.6,8.2-13.8,14.7-20.2-6.1,24.8-15.7,47.9-23.5,72.3-7.5,23.8-14.8,44.6-22.6,68.3-16.1,49-33,88.2-53.8,131.5-19.1,39.9,1.9,87.5-26.3,159.1-10,25.3-51.6,104.7-65.5,117.7ZM1226.7,1946.2c1.5,22.8,9.2,61.9,9,80-32.4-21.8-108.7-151.9-129.9-204.8-13.5-33.8-15.6-53.1-16.9-93.6-1.8-52.4,1.9-43.7-20.9-89.8-13.2-26.5-22.2-49-32.1-78.3-10-29.6-18.6-54.4-28-83-8.7-26.4-20.6-56.8-27.5-84.6.5.5,1.2,1.3,1.6,1.7,23.2,26.7,70.4,106.8,78.5,135.2l47,163.5c5.1,18.6,11.1,36.9,16.2,56,5.9,21.8-13.4,37-1.6,48,10.4-4.1,8.5-12.3,13.8-21.9,21.8,24.9,24.7,32.9,39.5,51.8,76.8,97.9,46.5,50.9,51.2,119.8ZM2073,1423.8c10.2,5.4,20,11.9,28.3,16l-3.3,16.1c-19-13.8-43.5-25.6-64.8-36.5-38.9-19.9-62.6-23.1-53.9-43,11.7,1.4,20.5,9.9,31.9,15.1l61.8,32.3ZM734.9,1442.9c8.1-11.8,71.7-42.9,91.8-52.2,10.1-4.7,20.1-14.8,31.7-13.6,1.2,12.3,3.3,11.4-5.7,17.4-4.1,2.7-12.6,6.3-16.8,8.3l-65.6,33.9c-10.3,5.4-22.7,13.9-32.2,18l-3.2-11.8ZM1982.3,1363.5c14.3-43,50.3-109.2,77.2-141.5,21.1,5.2,78.1,67.8,92.7,86.6,20.6,26.5,25.1,35.9,25,62.2-.2,28.5,2.1,58.7-1.4,86.6-6.4,50.4-8,195.9-33.5,234.1-8.6,12.8-32,35.6-48.5,43.4,4-20.5,5.7-36.4,7.9-56.5,3.9-35.5-.4-36.4,13.2-45.6,2.4,3.9,2,1.4,2.5,8.8,1.6,21.6-12.8,46.9,3,52.3,10.7-10.5,7.5-44,9.2-60.4,2.3-21.7,14.2-14.1,14.2-51.6-9.9-9-11.7,2.9-7.7-29.2,3.9-31.2-5.6-56.6,6.5-73.9,9-12.8,28.4-38.6,23.7-54-2.4-7.7-12-19.9-16.5-22.7-17.1-10.6-29.7,20-40.5,29.5-12.4-8.5-108.6-60.5-127-68.1ZM698.4,1400.4c-12.1-1-14.9,3-20.4,10.3-15.7,20.4-11,31.6,13.1,65.1,12.5,17.4,8.3,30.8,8.2,55.6,0,13.9,1.3,20.5,2.2,31.1,1.6,17.2-1,12-9.2,19.5,0,37.5,11.7,29.8,14.2,51.5,2.2,19-1.1,50.4,9.2,60.6,18-6.2-4.3-45,5.5-61.2,11,7.4,8.8,5.1,10.5,20.9,1.2,10.2,1.9,18.2,2.9,27.2,1.9,18.6,3.8,34.6,7.6,54-23.4-11.1-50.8-39.3-58.3-66.8-20-72.4-25.5-223.9-25.1-305.7,0-4.1-.2-8.5.8-12.5,3.2-13.1,1.8-5.2,4.9-8.9,1.7-5.8,12.1-22.8,18.2-31,6.9-9.3,13.5-16.1,20.7-25.7l18.5-18c12.3-12.4,41-41,54.7-44.4,22.7,27.3,66.2,100.8,75.3,139-.1,5.3-51.4,29.4-61.6,34.8-22,11.7-44.5,22.8-63.5,35.8-9.9-8.7-17.2-25.2-28.3-31.3ZM1844.7,1467.6c2-12.5,29.4-91.2,35.7-110,13.6-40.6,3.1-105.2,6.8-119.5,2.6-10.3-2.8-6.3,9.2-7.1,5.8,8.2,3,88,2.9,109.7,0,17.8-.4,14.4-7.8,28.4-12.3,23.3-32,80.1-46.9,98.5ZM1774.9,1483c-3.9-6.7-16.1-31.4-16.4-37.5-.5-9.4,51-91.2,61-101.2,2.8-9.4,9.6-18.5,16.1-26.4,5.6,4.7,23.8,30.9,27.6,36.6l-56.1,90.3c-30.3,44.6-27.8,53.1-32.2,38.3ZM972.9,1354.4c3.8-5.7,22-31.8,27.6-36.6,7.9,9.6,76.5,119.2,77,125.5.5,6.4-15,39.6-18.9,45.1-8.7-7.1-33.6-52.8-42.7-66.4l-43-67.6ZM991.4,1467.6c-15.4-19.1-34.8-76.3-47.9-100.3-11-20-8.6-129.5-3.8-136.3,11.1.7,7.8-2.8,9.5,9.6,3.1,23.6-7.5,74.8,7.2,119,6.1,18.3,33,95.5,35.1,107.9ZM1912,1229c8.2,2.7,23.2,12.1,31.9,17,21.1,12.1,19.9,2.5,19.5,33.7-.5,36.4-2.9,66.4-2.3,103.5-17.8-8.2-34.4-17.5-50.1-27.1l.9-127.1ZM872.5,1260.2c4.6-10.3.3-4.5,12.2-10.4,10.6-5.3,28.9-17.3,39.3-20.8,2.9,17.7.4,45.3,1.1,64.6.4,11.3.7,21.8.8,33.2,0,9.4,2.3,23.1-3.6,30.2-12.2,9.5-32.4,19.4-46.8,26.3l-3-123ZM1799.9,1350.1l-24.5,40.9c-8.1,11.9-19.4,32.4-25.6,38.9-6.6-4.5-8.2-7.4-11.6-14.7,10.8-14.5,31.2-50.2,42.4-59.9l29.6-45.9c6.6-7.1,3.4-5.3,13.7-1.4-.8,6.5-14.4,29.7-19.6,37-2.9,4-1.8,2.5-4.3,5ZM1098.7,1415.8l-12.5,14.2c-6.7-7-73.2-115.2-74-122,13.1-6.9,18.2,7,25.1,17.9l61.5,89.8ZM1875.4,1237.9c.5,24.2,4,87.1-2.5,104.1-11.5-5.4-2,1.4-10.7-8.9-26-31-21-42.3-20.1-81.8l33.4-13.4ZM963.1,1342c-6.5-17-3-80-2.1-105l32.7,15c.5,17.6,3.5,42.7-3.4,56.2-5.7,11.1-16.1,28.5-27.1,33.7ZM1552.9,1377.3c10.4-18.7,30.6-21.9,51.1-30.5l171.7-68.4c-.2,19.9-3.6,19.7-11.6,32.3-7.2,11.3-8.5,14.2-15.4,23.2-18.9,24.8-10.4,26.4-45.7,34.8-22.1,5.2-111.2,29.8-127.6,30.1l-22.5-21.4ZM1234,1347.6c20.2,8.4,38.9,11.4,48.5,29.1l-21.3,22.6c-16.6-.9-50.5-11.2-66.1-15.2-105.2-26.3-81-10.8-124.2-75.2-7.8-11.6-10.3-11.8-10.5-30.6l173.7,69.3ZM1830,1296.8c-14.4-4.3-11.8-2.5-11.9-19.8-.2-17.8-3.5-17.8,12.2-19.9l-.3,39.7ZM1005.9,1296.8c-.2-7.5-.3-15.1-.3-22.7,0-2.6,0-8.5.3-10.9,1-5.5,1-3.3,2.8-6.2,12.3,4.1,9.6,6,9.1,22.9-.4,15,1.2,13-11.9,16.9ZM2065.5,1211.2c0-16,0-35.7,4.7-47.9,5.5-14.6,13.1-24.8,24.8-31.9l-6.6,94.2c-5.4-1.9-16.5-10.5-22.8-14.4ZM1896.4,1219c-12.2-1.1-9.8,8.1-6.8-24.9.9-9.4,1.9-22,3.1-31.7h10.3c.9,6.5-1,20.2-1.7,28.7-.5,6.4-1,7.3-1.8,14.3-.3,2.7-.2,5-.8,7.6-1.1,5.7-.5,2.9-2.5,6ZM946.7,1196.9c2.8,30.2,4.2,21.2-7.1,22.2-3-4.7-2.3-5.3-3.4-13.6-.8-6.3-1.2-8.6-1.6-14.5-.7-8.6-2.6-22-1.6-28.8l10.2.6c1.4,10.2,2.5,23.8,3.5,34.1ZM2127.4,1155.4c1.5-31,6.7-20.2-10.1-44-13.4-19-7.4-24-6.7-45.4,11,4.7,30.9,18,30.8,31,0,24.5-14,159.4-15.5,163.3-9.9-7.1-5.2-22.7-3.1-49.3,1.3-15.8,3.8-37,4.6-55.4ZM710.1,1260.1c-4.4-10.8-11.9-114.5-13.1-138.1-.4-8.2-2.8-22.7-2.4-27.3,1-11,21.4-24.8,30.8-28.8.6,20.1,6.7,25.9-5.6,43.8-11.1,16.1-14.3,13.9-11.7,38.2,3,28.6,7.8,73.9,7.8,98.6s.9,8.7-5.8,13.6ZM1603.1,1332.7c5.4-9.1,28.8-27.6,38.7-36.5,35.3-31.9,74.3-61.4,116.2-99.5,6.5-5.9,12.6-11.5,18.9-17,6.8-6,4.7-3.1,11.5-7.8l124.2-106.6c2.1,17.4-5.6,64.1-8,84.3-23.1.6,1.8-6.4-19.4-7.8-9.9,18.4-1.9,74.1-13.8,84.6l-199.8,80.3c-15.6,6-54.1,24.7-68.6,26.1ZM958.2,1205.1c-.7-14.9-2.9-54.9-7.5-63.4-21.1,1.4,3.7,8.5-19.4,7.8-2.8-7.5-9.1-75.2-8-84.3,6.9,7,13.5,9.2,21,16.2l57.5,50.5c13.1,11.1,25.2,21.8,38.2,33.6,9,8.2,12.3,7.8,20.5,15.4,15.4,14.4,166.4,141.8,172.4,151.7-13.6-1.3-53.6-20.4-68.6-26.1l-134-53.9c-61.3-23-70.9-21.1-72.1-47.5ZM1911,1213.2c.1-19.5,4.3-48.6,6.5-67,1.7-14.6,6.3-89.6,14.9-98.6,9.4-9.9,51.3-46,61.7-50.9l-16,120.7c-18.9,140.6-2.4,131.9-41.4,110.8-9.6-5.2-17.4-8.1-25.8-14.9ZM918.5,1146.2c2.1,18.4,6.3,47.4,6.5,67-8.9,7.4-17.3,10.1-27.6,15.9-36.2,20.5-22.1,28-34.9-73.3l-20.7-159.1c13.3,6.2,13.4,9.1,23.3,17.5,44.5,37.6,41.5,29.5,45.8,63.8,3.1,24.5,4.8,44.2,7.6,68.2ZM2110.5,1044.7c3.5-29.7.6-25.4,19-40.6,10.5-8.7,15.1-17.9,28.9-24.2l-14.7,92.7c-9.8-3.6-11.3-6.9-18.8-13-10.7-8.7-10.5-7.2-14.4-14.9ZM709.6,1060.8c-7,5.8-7.3,8.1-15.9,11.5l-15.3-92.6c13.6,6.7,18.4,16.6,29.6,25.5,17.6,14.1,14.2,12,17.4,39.4l-8.3,10c-2.2,2-4.3,3.5-7.6,6.2ZM1423.9,1091.3c12.5-5.2,62.8-36,82.6-46.5,49.1-25.9,119.1-71.4,164.5-95.5,45.8-24.3,37.3-25.8,89.8-4.4-.3,8.4-6.9,68.9-9,74.4-3.1,8.1-29.8,23.7-44.8,35.1l-260,182.3c-7.8,5.8-14.2,12.8-23.1,14.9v-160.5ZM1075.1,945c49.7-20.3,44-21.1,91.6,5.3,41.7,23.1,224.8,132.4,245.3,141v160.5c-4.9-1.2-43.7-28.2-49.6-32.6l-235.1-165.9c-18.6-14.1-40.6-25-43.9-35.9-2.3-7.8-8-62.4-8.4-72.4ZM1973.2,1347.1c-1.2-20.9,1.9-45.9,1.9-70.2,0-25.4,1.8-44.9,4.3-66.8,7.1-64,16.7-152.3,27.7-217.2,2.6-15.5,2-14.5,12.7-21.3,15-9.5,25-20.2,37.7-31.2,12.7-10.9,23.7-23.6,38.6-31.9-1.8,14.2-20.3,75.6-26,116.5-5.3,38.3-11.7,82.3-14.1,124.5-4.6,77.9,4.8,47.8-21.3,85.9-14.8,21.6-38.4,64.5-49.4,88.9-2.2,4.9-3.1,7.5-4.9,11.3l-7.1,11.4ZM862.8,1347.1c-4.2-4.8-22.2-42.2-25.2-48.4-59.1-120.4-51-35.5-57.6-149.1-4-68.3-13.1-121.3-25.9-185.2-3.7-18.4-12.2-39.5-14.3-55.8,15.6,8.6,26.6,21.6,40.1,33.1,45.2,38.3,45.6,29.1,49.7,55.9l12.5,88.6c8.4,56.1,24.1,202.8,20.7,260.8ZM2098.7,945.2c4.5-17.1,14.8-67.9,38.2-69.4,12.3,22.6,14.2,47.5,17.5,74.2,2.5,20.4-2.4,16-15,27.9-8.4,7.9-11.9,15.1-23.8,19.3-3.2-9.9-6.5-29.4-8.5-40.5,8.5-5.5,13.9-12.6,21.5-20,7.9-7.8,16.9-11.3,12.7-23.5-16.1,0-24.5,28.6-42.5,31.9ZM720.4,997.2c-12.5-4.4-16.5-12.8-25.2-20.6-12.4-11.1-16-7.3-13.6-26.6,3.2-26.7,5.3-51.6,17.5-74.2,23.2,1.4,33.9,52.9,38.2,69.3-10.4-1.8-14.6-9.7-21.5-16.7-6.1-6.2-11-15.3-21-15.1-5.7,16.1,16.6,22.1,33.6,45.6l-8,38.3ZM1766.4,1011.6c-.6-14.4,2.3-32.7,3.8-45.2,3-25.1,0-20.2,18.9-31.8l87.3-62c40.9-30.5,41.3-32.6,61.5-21.7,10,5.4,25.7,11.7,31.8,17.5-24.5,18.3-88.8,64.5-114,80.3l-89.3,62.8ZM882.5,860.9c3-3.3,1.7-2.1,6.4-5.2,1.5-.9,3.7-2.1,5.4-2.9,3.6-1.9,9.9-5.3,12.9-6.6,11-4.6,15.6.6,22.9,6.1l110.2,77.9c9,6.6,14.7,6.9,21,16.4,5.1,8.9,8.8,51.2,8.2,65.1l-154.6-108.3c-16.9-10.4-33.7-23.7-48.7-34.9,5.9-5.6,7.4-6.4,16.3-7.6ZM2145.3,865c6.4-5,13.3-10.8,19.3-15.8,5,43.5,3.9,34.4-.4,81.2-2.9-8.1-4.4-25.8-7.2-35.9-5.2-19.1-8.1-18.8-11.6-29.4ZM1142,923c3.1-13.8,20.2-29.2,29.8-41.6l74.4-99.8c2.1-3.3,4.1-6.5,6.9-9.5,7.2-7.8,1.8-4.2,10-7.1l255,.6c.5,67-9.8,128.4-26.3,180.8-14.8,47.1-39,113.3-73.9,134.4-9.5-2.6-90.4-50.7-106-60.1-10.6-6.4-23.2-12.7-33.6-18.9-22.1-13.2-47.8-28.6-68.5-39.3-10.5-5.4-25-14.1-35.1-20.3-13.1-8.1-19.8-10.9-32.8-19.2ZM1742.8,923.4c-31.2-5.8-30.7-.8-48.1-22.6-17.2-21.4-70.1-90.6-84.2-111.6,3.9,4,13.8,9.8,18.8,13.7,19.4,15.5,108.6,99.5,113.6,120.4ZM1093.2,923.4c4.6-19.2,81.7-93.2,97.4-106.1l35-28c-10.2,15.1-17.6,24-28.3,37.6-9.7,12.3-18.6,26.5-27.9,38.4-44.3,57-32.6,50.1-76.2,58.2ZM1569.1,751.6c-13.7,4.7-293.2,4.2-303,0,6.3-6.4-1.7-5.9,16.2-6l215.9.2c10.7,0,67.2-2.3,70.9,5.9ZM1420.3,529.2c18.2,8.9,33.6,26.7,45.4,44.6,19.1,29,92.3,130.4,95.2,160.2-25.8.6-241.9,3.4-273.1,1.4-13.6-.9-11.4-2.3-13.6-4.3,5.6-9.3,9.8-18.3,14.5-28.5,9.4-20.2,105.2-183.8,131.5-173.4ZM2072.9,700c7-24.7,25.9-66.4,44.7-75,9.5,7.3,16.1,24.2,18.9,38.1-7.4,6.2-55.9,34.2-63.6,36.9ZM699.5,663.1c2.7-13.7,9.1-30.5,18.9-38.1,18.9,8.6,37.7,50.2,44.7,74.9-7.5-2.6-56.3-30.7-63.6-36.8ZM459,666.9c9.3,2.7,37.6,30.2,46.2,38,11.4,10.4,132.4,111.7,135.8,119.1,28,12.6,16.4,22.1,15.3,54.9-.8,22.1,4.5,50.1,5.4,70.8,1.7,37.1,18.9,94.6,18.4,123.7-9.3-3.4-18.5-6.6-23.9-13.8-13.7-2-29.7-12.8-43.6-19.7-22-10.8-21.4-16.1-37.1-2.1l1.5,7.2c10.8-.5,10-3.5,19.3.2l46.2,23c43.5,20,38.7,16.2,40.8,31.1,5.6,38-.4,20.9-12,28.5-1.1,11.5-.2,14.8.8,23.4.3,2.6.7,7.3,1.1,9.8l1,4.9c.1.6.6,2.7.7,2.4.1-.4.4,1.6.7,2.3,6.3,9.5,14.6-1.8,16.5,34.7,3,58.4,12.5,60.9-4.3,80-10.2,11.6-36.2,45.7-39.5,59.9-5.6,23.7,2,123.8.3,144.2-16.9-23.8-32.6-61.6-45.5-91.7-14.1-32.8,7.2-22-2.2-50.1-3.2-9.4-7.3-16.9-10.7-25.8-3.2-8.5-5.5-14.8-8.6-24.1-2.2-6.4-5.4-19.3-11.6-24.3-10.1-8.3-12.1,0-18.4-15l-15.8-53.5c-22.9-77-37.8-143.2-55.6-220.5-17-73.8-31.2-158.8-43.7-233.6-5.7-33.7-12-92.1-17.1-117.7,7.7,4.8,33.9,27,39.6,33.9ZM1682.9,834c-10.3-3.7-16.7-14.2-24.4-21.5-7.6-7.2-15.1-13.4-24-20.1-9.9-7.5-47.8-36.5-50.7-40.7-3.9-5.8-10.8-24-14.7-32.4l-46.8-87.5c15.2,8.9,146.3,177.8,160.6,202.2ZM1153.1,834c22.6-38.7,119-156.2,154-196.1,5.3-6-3.7-.2,6.6-6.1-4.4,13.3-10.8,19.4-17.2,31.7-5.8,11.1-9.3,16.6-15.5,28.6-32.9,63.6-14.8,49.4-56,82.3-5,4-8.6,6-12.8,9.2l-7.5,6.4c-12.7,10.2-46.9,42.3-51.6,44ZM2179.6,876c0-30.7-13-30.9,8.6-48.3l64.7-57c9.2-6.8,4.1-.9,17.4-13l97.2-85.4c7-5.9,45.6-37.7,49.8-38.2-.2.3-34.5,213.2-38.4,235.5-6.4,36.1-14.8,78.6-23.1,114.6-9.2,39.9-56.8,239.6-71.4,274.1-10.5,25-13.7-8.1-30,39.3l-19.3,49.9c-9.4,28,11.8,17.3-2.2,50.1-12.7,29.6-29,68.5-45.5,91.7l1.8-96.2c0-49,3.3-57.5-40.9-108-13-14.9-10.6-10.4-7.6-34.4,1.9-15.3,2.8-60.6,7-68.8,5.3-10.4,11.4-4.2,14.2-16.3l1-4.9c11.2-67.1-20.2-6.9-9.8-64.1,2.1-11.3-1.2-7.9,9-13.2l59.2-29.4c23.4-11.7,16.5-9.4,30.6-10.2,20.3-1.2,2.5-15.4-5.8-14.3-7.2.9-75,38.2-90.1,43.7-.4-24.7,9.9-67.3,14.8-91.5,3.4-17,2.4-24.4,4.4-41.9,2.9-25.5,4.5-37.8,4.5-63.9ZM1977.5,754.2c1-25.4,21.8-90.2,30.3-114.8,27.2-78.5,26-52.7,48.2-98.8,22.1,4.7,51.5,51.6,58.9,70-14.1,12.9-23.2,19.5-33.2,38.8-34.6,66.9-8.1,52.1-60,81-14.2,7.9-29,20.1-44.2,23.8ZM721.1,610.6c5.9-14.7,35-57.5,48-65.5,8.3-5.1-.3-2,10.9-4.4,21.8,45.2,21,20.4,48.2,98.8,8.5,24.6,29.2,89.4,30.3,114.8-15.4-3.8-31-16.7-45.9-24.8-48.6-26.5-25-15.2-59.2-81.8-9.4-18.3-19.4-25.3-32.2-37ZM1910.2,794.6c-6.2-9.8-9.1-20.5-14-31.6-20.1-45.8-40.9-82.2-61.4-124.1-6.5-13.3-12-15.6-7.8-34.3,4.6-20.6,15.9-47.2,25-66,9.6-19.8,41.6-76.5,55.9-85.7,11.8-7.6,19.7,1.5,30.6,7.8,21.3,12.3,95,54.6,111.5,69.8-3.2,5.9-7,10.1-10.7,15.8-40.9,63.2-57.4,131.6-74.1,205-4.3,18.9-5.5,15.5-24.1,25.9-11.1,6.2-18.7,10.7-30.9,17.5ZM1663.9,535.9c3.5-2.9,1.9-2.4,10.6-4.3,14.5-3.2,51.9-6,76-11.3l3.5,10.1c-9.8,5.1-35.5,7.1-47.9,9.1-37.2,6-37.1,9.1-42.1-3.6ZM1172.1,535.9c-4.6,11.5-5,9.4-20.6,6.9-15.8-2.5-60.2-7.6-70.1-12.7l4.7-9.6c11.5,2.5,77.3,8.2,85.9,15.4ZM1006.5,595.8l2.7,8.6c4.4,19.1-1.9,23.7-13.5,45.5l-47.9,95.9c-8.4,16.6-14,36.1-22,48.6l-17.3-9.6c-38.2-24.5-31-5.2-42.1-53.9-10.1-44.2-17.8-70.2-32.2-109-23-62.2-26.3-51.2-48.3-91.5,12.8-11.8,117.1-76.4,134.2-81.3,18.2,7.7,40.9,45.1,51.1,66.1,13.1,27.2,26.4,49.2,35.2,80.6ZM1765.8,932.1c-18.2-40.1-182.1-250.5-217-289.1-8.5-9.4-8.3-13.2-16.8-21.9l-56.2-59.9-40.1-37.3c-11.5-8.9-11.9-8.5-11.8-26.5.2-51.7.2-103.3.2-155s-3.3-250.4.4-308.8c33.1,2.3,111.7,39.9,142.1,58,31.1,18.6,91,58,117.7,84.1,41.8,41,60.5,47,60.6,91.9.2,74.8,8.2,154.8,6.9,240-30.4,7.6-92.5,12.9-107.8,16.6-13.6,3.3-5.1-2.6-10.8,6.2,7.1,13,7,2.6,20.9,6.6-2.6,22-8.8,1.6-18.5,18.2,7,9,17.6,3.8,30.3,2,24.4-3.6,80.9-13.3,98.3-13,3.4,4.6,7.8,9.9,11.3,16,4.1,7.1,5.2,10,10.2,17.3,28.5,42,123.8,227.4,125,257.6-6.1,3.8-7.7,5.4-14.2,8.1-8.5-8.3-3.9-12.1-16.1-13.5-4.3,10,.3,11.3,4.3,21.5-14.1,12.9-69.7,51.2-87.6,63.1-11-9-1.1-11.3-17.2-13.4-2.9,9.9,1.9,13.4,5.4,22.6-8.1,5-7.8,6.6-19.4,8.7ZM1084.3,507.6c-1-65.8,2.1-131.1,4.6-195.7,1.3-34.8-1.7-68.7,14.8-87.6,25.5-29.2,49.1-49.8,78.1-74.2,46.3-38.9,177.2-113,230-116.6l.3,472c0,14.2-13.1,18.7-21.9,27.5-8.6,8.6-13.8,14.8-23.9,23.1-26.5,21.8-69,75.6-91.8,101.6-15,17.2-28.2,33.6-42.9,51.3-28.7,34.4-150.8,200-161.3,223.1-11.6-2.1-11.3-3.6-19.4-8.6,3.5-9.2,8.3-12.7,5.4-22.6-16.1,2.1-6.2,4.4-17.1,13.4-17.4-11.5-73.4-50.2-87.6-63.1,4-10.2,8.6-11.5,4.3-21.5-12.3,1.5-7.6,5.3-16.2,13.5-6.6-2.7-8.1-4.2-14.2-8.1.9-23.4,53.3-126.3,66.7-152.6,18.4-36.3,56.3-106.7,79.9-138.3,20.5-.3,45,5.4,66.7,8.4,24.3,3.5,54.3,12.2,61.9,2.6-9.8-16.7-16,3.8-18.5-18.3,13.4-3.8,14,5.8,20.9-6.6-5.3-8.1,1.8-3.8-13.2-6.6-29.3-5.4-72.6-7.8-105.5-16.2ZM1804.1,586.5c-14.7-36.9-36.1-30.1-16-78.5,11.9-28.7,24.6-51.7,39.8-74.7,16.6,5.7,28.8,15,43.3,21.9l10,8.8c-2.4,10.1-12.8,20.9-19.3,31.9-11.6,19.7-26.2,47.9-33.9,68.3-4.7,12.5-9.9,25-12.4,38.4-3.4-4.8-7.8-9.9-11.6-16ZM1017.2,447.9c6.5,13.5,14.2,21.8,20.2,37.4,6.2,16.2,13.5,23.8,15.9,42.4,6,8.6,6.2,10.4,1.1,20.6-3.3,6.6-6.4,11.6-11.4,19.1-7.3,10.9-15.6,25.4-22.7,35.3-2.2-11.7-8.4-28.6-13.1-40.4-4.9-12.3-9.6-22.4-15.6-34.1l-36.7-64.1c6.7-9.1,40.2-26,53.2-30.7,5.6,8.2,5.2,5.1,9.1,14.5ZM2277.5,582.1c36-47.9,72.5-77.5,117.2-114.7,8.7-7.2,29.1-25.1,43-30.3-3.7,50.2,1.3,51.3-12.6,60.5l-147.6,84.4ZM429.2,458.1l53.4,42.6c27.9,27.4,53,50.9,75.9,81.4-7.3-2.7-121.6-68.5-127.3-73.6-36.4-16.9-27.9-10.8-32.9-71.4,8.2,3.1,26.1,14.1,31,20.9ZM1766.7,531c-7.7-30.7,12.8-63.7,28.8-90.4,8.7-14.5,5-19.9,20.3-14.9-1.7,9.5-7.2,17-12.6,25.5-19.4,30.4-25.4,57.1-36.5,79.9ZM1068.4,529.8c-1.5-9.5-7.2-17.8-10.9-26.4-14-32.4-20.5-42.5-36.6-75.4,6.5-10.1,14.8,4.6,20,12.1,5.9,8.5,10.5,15.9,15,26.5,9,21.2,18.7,39.4,12.5,63.1ZM1762,405.7l32.8,9.9c-3.8,13.4-9.5,17.8-16.3,30.1-5.1,9.2-9.7,20.3-14.1,26.3l-2.5-66.3ZM1074.2,407.1l-2.8,64.4c-5.7-10.8-9.8-14.6-16.6-26.5-4.9-8.7-9.6-19.4-13-28.6l32.4-9.3ZM1423.9,1271.4c3.4-7.8,29.9-25.1,38.2-30.5,39.7-26.1,81.3-58.2,119.8-84.8l398-279.4c22.2-13.8,150.7-105.7,181.8-127.9,41.5-29.7,104-71.8,137.5-97.5l40.9-28.2c70.1-53,162.8-113.6,238.3-168.2,12-8.7,109.4-79.1,118.9-81.7-9.4,10.1-27.3,24.8-38.8,34.4-13.7,11.5-27.2,22.8-39.9,34.8-15.8,15-11.7,8.4-21.7,16.9l-217.5,189c-7.1,6.6-14.2,10.1-21.8,16.8l-98.5,86.8c-6.5,5.8-13.4,9.3-20.4,15.5-30.5,27-82.3,75.5-110,94.6l-68,59.2c-39.7,35.6-80.4,67-120.4,103.6l-158.8,137.1c-6.2,4.3-4.7,1.9-11.5,7.8l-27.9,24.6c-13.7,11.6-26.3,22.8-39.7,35-11.6,10.6-28.1,26.6-39.7,35-36.6,26.6-228.2,198.8-238.7,203.3v-196.4ZM1190.5,1277.9c-7.6-6.9-12.9-9.5-20.3-15.7l-108.8-95.8c-24.3-16.6-27.5-22.2-49.6-41.7-14.3-12.6-25.5-22.8-39.8-34.9-6.9-5.9-11.7-10.2-19.2-16.8-7.2-6.3-13.6-9.7-20.4-15.4l-100-88c-7.5-7.4-13-9-20.4-15.6l-119-102.2c-26.2-24.2-51-44.8-78-68.6l-40.9-33.7c-13.1-12.3-26-23.3-39.8-34.9-13.4-11.3-26.2-22.8-39.7-35-6.5-5.8-12.3-11.1-19-16.9-8.2-7-12.7-8.3-20.4-15.5-21.8-20.3-84.8-76.3-111.6-95.8l-47.2-41.4c-13.6-11.4-26.4-22.8-39.7-35-23.5-21.5-20.3-15.9-32.4-25.7l-85.7-76.1c13.8,3.8,177.9,126.4,201.7,139.9l79.4,56.1c29.6,21.3,92,62.9,118.5,83.4,14.3,11,27.1,19,40.7,28.3,13.9,9.5,24.7,18.7,38.3,28.1l120.2,84.5c27.5,17.3,129,90,158.9,112,8.4,6.2,12.9,8.1,20.1,13l218.7,154.6c20.3,12.5,41.2,31.1,59.8,42.6l138.1,96.8c26.6,20.6,52.2,35.2,78.9,56.2v199.2c0,0-221.5-190-221.5-190ZM1914.8,805.3c17.2-8.3,32.9-18.5,49.3-27.4,44.6-24.1,94.2-55.9,143.5-83.3,77-42.8,170.1-101.2,242.2-139.3l96.3-55.8c15.5-9.4,31.5-18.1,47.3-27.5,8-4.8,183.6-107.8,193.8-110.6-7.4,11.5-31.3,23.1-44.6,33.1-36.2,27.3-73.7,52.2-110.3,77.8l-550.3,387.5-52-25.9c-9.7-5.9-10.5-11-15.2-28.5ZM907.2,797.3l14,8.1c-5.3,19.5-6.1,24.3-18.8,30.3-5,2.4-5.9,2.6-11.7,4.7l-36.7,19.4-133.7-93.5c-15.6-11.1-29.9-19.7-44-30.4-32.6-24.7-179.3-129.2-222.1-156.9-15.8-10.2-27.9-21.9-43.3-31.4-23-14.2-100.9-69.9-132.1-91.8-15.6-10.9-27.1-21-43.6-31.1-15.5-9.5-28.4-20.3-43.3-31.4-13.8-10.2-35.7-20.5-43-31.9,10.1,2.8,183.7,104.7,190.3,108.6l72.1,41.2c37.7,23.4,79.3,46.2,117.6,67.7l141.4,82.5c40.5,21.4,149.6,84.4,189.6,109l47.4,26.8ZM1075.1,392.1c-12.6,1-24.9,7.1-35,12-11.9,5.8-21.3,7.7-33.3,13.7-21.1,10.7-42.1,22-61.7,35.1-19.6-29.3-39.9-12.2-62.4,1.2-7.1,4.2-11.3,6.2-17.8,9.9-18.9,10.5-72.5,44-86.2,54.9-38.1,30.3-63.4,70.4-82.4,113.9-3.1,7.2-5.1,15.2-8.3,22.1-9.6-2.2-43.5-22.1-54.4-28.6-72.2-43.4-37.6-27.9-97.1-88.2-24.5-24.9-49.5-52.3-78.4-73.6-12.6-9.3-56.2-49.7-68.5-46.7-11.3,2.7-4.1,19.8-3.2,29.9,1.1,12.9,3,25.2,3,35.7-16.2-8.6-30-16.1-46.1-25.8l-82.4-47.6c-4.8-2.6-8.3-4.5-12.4-7l-140-81.3c-13.1-7.9-25-12-37.2-20.9l-10.1-6.5c-9.7-5.1-15-7.6-23.3-12.7-9-5.5-13.4-10.9-27.5-11.2.4,17,5.4,14.4,15.8,23,4.3,3.6,5.7,5.6,10,9.4l99.5,85.7c8.6,7.2,13.9,11.8,22.4,19,21.9,18.6,42.5,38.8,65.2,56.5,7.1,5.5,15.4,12.4,22.7,18.7,37.3,32.6,71.9,65.4,111.2,96.2,42.7,33.6,44.5,29,51.4,70.3l27.7,179.7,27.1,136c2.9,12.2,3.5,23.3,6.2,35.3l12.5,48.3c11.8,65.2,52.8,210.3,77.4,271,11.5,28.4,21.9,60,34.3,87.4,14.7,32.6,29.9,65.3,47.1,96.7,18.3,33.4,11.2,40.6,17.4,87.7,2.9,22.3,9,45.8,10.3,69.9,1.2,21,13.6,46.8,21.9,61.1,11.6,20,20.2,30.7,36.8,46.2,23.5,22,16.9-2.4,26.6,34.2,4.4,16.6,11.2,27,17.4,43.5,12,32.1,25.4,52.9,54.8,69.6,4.2,2.4,7.2,4.7,11.7,7.7,5.4,3.5,8.8,4.7,14.1,8.1l25,16.5c8.6,4.7,17.1,10.3,25.6,15.9,6.5,4.3,18.1,15.4,26.1,15.4,18,0,29.7-21.1,33.2-35.9,11.4,3.1,42.7,35.1,54.8,44.7l31,18.8c17.8,11.1,33.4,15.6,52.5,11.1,9.4-19.6,2.7-58.1,2.8-88.5.1-31.6-5.5-61.6-5.5-91.2,11.8,8.6,8,16.7,14.9,29.3l15.7,28.6c4.5,8.8,11.3,18.4,17,27.3,6.1,9.6,10.9,20.6,17.2,29.8l18.2,26.1c5.9,8.4,11.9,16.8,18.6,25.7,44.8,60.3,50.4,50.9,74.8,29,8-7.2,17.9-18.7,28.3-21.5,0,17.3,5.9,32.4,8.7,49.4,2.9,18,15.4,80.4,22.8,93.4,5.9,10.4,17.5,25.9,32.1,25.9h105.1c32.8,0,38.3-48.6,44.2-71.9,4-15.6,8-31,10.7-47.4,2.8-16.9,8.7-32.1,8.7-49.4,9.5,2.5,6.4,2.3,13.2,8.9,47.6,46.1,48.1,38.8,106.1-38.9,3.7-4.9,5.2-7.6,8.7-13.4l60.6-99.7c7.7-12.8,3.9-22.3,15.9-31.1,0,29.6-5.7,59.6-5.5,91.2.1,30.4-6.7,68.9,2.8,88.5,19,4.4,34.6,0,52.5-11.1l30.9-18.8c12.1-9.6,43.4-41.7,54.8-44.7,3,13,15.5,35.9,30.4,35.9s18.2-7.6,25.6-13.1c13.8-10.1,31.2-17.2,44.5-27.4,24.4-18.6,60.3-29.2,74.1-58.6,4.2-9,9.3-19,13.4-28.1,8-18,17.9-38.8,21.6-58.6,4.7-25.2,23.6-8.2,58.5-65.9,26-43,27.6-83.8,34.5-131.4,14.3-98.7-7.1-39,36.6-126.6,23.4-46.8,43.3-94,60.7-144,10.9-31.3,22.9-61.8,30.9-93.5l36.2-129.7c9.7-32.2,15.6-65,24-97.6l20.6-103.9c3.6-35.9,17.3-67.9,19.3-102.4,1.6-26.9,7.9-46.1,11.3-71.7,2.7-20.8,10.5-96.2,16.7-107.7,3.1-5.7,37-33.6,43.9-39l242.6-208.1c21.4-19.9,47.5-35.9,67.4-57,18.7-19.9,38-27.4,38.4-44.6-19.6.4-32.5,14.8-48.9,23l-15,9.8c-5,3.5-.9.9-6.9,4.1-32.5,17.2-62.8,37.3-95.8,53.5l-212.2,122.4c0-48.6,28.2-95.8-45.9-37.6-35.4,27.8-69.5,59.1-99.9,90.9l-28,30.1c-41.2,51.1-23,25.4-65.5,56.1-8.8,6.4-51,30-59.3,32-23.3-48.6-13-50.8-59.9-106-7.9-9.3-4.6-5.9-13.9-13.8-31.2-26.4-13.9-12.6-49-36.7-28.1-19.3-58.4-34.9-87.8-53.2-19.2-11.9-33-12.4-46.5,7.8l-43.7-25.4c-5.5-2.6-9.2-5.1-16.2-8.7-14.6-7.5-54.8-25.4-70.1-26.7,0-33.2.7-148.6-9.3-164.9-5.2-8.5-13.9-16.2-20.6-23.6-21.3-23.4-44.2-45-69.6-63.1-17.1-12.2-33.5-26.3-51.3-37.2l-41.1-25.3-73.8-36.8c-5.9-2.2-10.8-2.9-17.1-5.1-39.3-13.7-60.8-22.2-102-6.7-16.1,6.1-33.5,10.6-47.7,18.6-6.8,3.8-9.4,4.1-15.8,6.3-25.9,9-60.5,32.7-84.8,47.9-5.7,3.6-8.1,4.3-13.5,8.6l-25.7,18.5c-34.4,24.9-78,61.4-102.9,96.2-10,14-7,58.7-9.7,78.8-3.1,22.7-.8,63.1-.8,87.7"/>
  <path class="st9" d="M1765.8,932.1c11.6-2.1,11.3-3.6,19.4-8.7-3.5-9.2-8.3-12.7-5.4-22.6,16.1,2.1,6.1,4.4,17.2,13.4,17.9-11.9,73.5-50.2,87.6-63.1-4-10.2-8.6-11.5-4.3-21.5,12.3,1.4,7.6,5.3,16.1,13.5,6.5-2.7,8.1-4.3,14.2-8.1-1.2-30.1-96.5-215.5-125-257.6-5-7.3-6.1-10.2-10.2-17.3-3.5-6.1-7.9-11.4-11.3-16-17.4-.3-73.9,9.4-98.3,13-12.7,1.9-23.3,7-30.3-2,9.7-16.6,15.9,3.8,18.5-18.2-13.9-4-13.7,6.3-20.9-6.6,5.8-8.8-2.8-2.9,10.8-6.2,15.3-3.7,77.5-9,107.8-16.6,1.3-85.2-6.7-165.2-6.9-240-.1-44.9-18.8-50.9-60.6-91.9-26.8-26.2-86.6-65.5-117.7-84.1-30.3-18.1-109-55.8-142.1-58-3.7,58.5-.4,237.2-.4,308.8s0,103.4-.2,155c0,18,.3,17.6,11.8,26.5l40.1,37.3,56.2,59.9c8.5,8.7,8.4,12.5,16.8,21.9,34.9,38.6,198.8,249,217,289.1"/>
  <path class="st5" d="M1084.3,507.6c32.9,8.3,76.1,10.7,105.5,16.2,15,2.8,7.9-1.5,13.2,6.6-6.8,12.4-7.4,2.8-20.9,6.6,2.5,22.1,8.7,1.6,18.5,18.3-7.7,9.6-37.7.9-61.9-2.6-21.7-3.1-46.2-8.8-66.7-8.4-23.6,31.5-61.5,101.9-79.9,138.3-13.3,26.3-65.8,129.2-66.7,152.6,6.1,3.8,7.7,5.4,14.2,8.1,8.5-8.3,3.9-12.1,16.2-13.5,4.3,10.1-.3,11.3-4.3,21.5,14.2,12.9,70.2,51.5,87.6,63.1,11-9,1.1-11.3,17.1-13.4,2.9,9.9-1.9,13.4-5.4,22.6,8.1,5,7.8,6.5,19.4,8.6,10.5-23,132.6-188.7,161.3-223.1,14.7-17.7,27.9-34.1,42.9-51.3,22.8-26,65.3-79.8,91.8-101.6,10.1-8.3,15.3-14.6,23.9-23.1,8.8-8.7,21.9-13.2,21.9-27.5l-.3-472c-52.8,3.5-183.7,77.6-230,116.6-28.9,24.3-52.6,44.9-78.1,74.2-16.5,18.9-13.4,52.8-14.8,87.6-2.5,64.6-5.6,129.9-4.6,195.7"/>
  <path class="st5" d="M1412,1467.9v-199.2c-26.7-21.1-52.2-35.7-78.8-56.2l-138.1-96.8c-18.7-11.5-39.5-30.1-59.8-42.6l-218.7-154.6c-7.2-4.9-11.7-6.9-20.1-13-29.9-21.9-131.5-94.7-158.9-112l-120.2-84.5c-13.6-9.4-24.5-18.7-38.3-28.1-13.6-9.3-26.5-17.3-40.7-28.3-26.5-20.5-88.9-62.1-118.5-83.4l-79.4-56.1c-23.8-13.5-187.9-136.1-201.7-139.9l85.7,76.1c12.1,9.7,8.8,4.2,32.4,25.7,13.3,12.1,26.1,23.5,39.7,35l47.2,41.4c26.8,19.5,89.8,75.5,111.6,95.8,7.7,7.2,12.2,8.6,20.4,15.5,6.8,5.8,12.6,11,19,16.9,13.5,12.1,26.2,23.7,39.7,35,13.9,11.6,26.7,22.7,39.8,34.9l40.9,33.7c27,23.8,51.8,44.4,78,68.6l119,102.2c7.3,6.6,12.8,8.2,20.4,15.6l100,88c6.8,5.7,13.2,9.1,20.4,15.4,7.5,6.6,12.3,10.9,19.2,16.8,14.3,12.2,25.4,22.3,39.8,34.9,22.2,19.5,25.3,25.1,49.6,41.7l108.8,95.8c7.4,6.2,12.7,8.8,20.3,15.7l221.5,190"/>
  <path class="st9" d="M1423.9,1271.4v196.4c10.5-4.5,202.2-176.7,238.7-203.3,11.6-8.4,28.1-24.4,39.7-35,13.4-12.3,26-23.4,39.7-35l27.9-24.6c6.8-5.9,5.4-3.5,11.5-7.8l158.8-137.1c39.9-36.6,80.7-68,120.4-103.6l68-59.2c27.8-19.1,79.5-67.6,110-94.6,7-6.2,13.9-9.7,20.4-15.5l98.5-86.8c7.6-6.8,14.7-10.2,21.8-16.8l217.5-189c10-8.6,5.9-1.9,21.7-16.9,12.7-12.1,26.2-23.4,39.9-34.8,11.5-9.6,29.4-24.3,38.8-34.4-9.5,2.6-106.9,73-118.9,81.7-75.5,54.5-168.2,115.2-238.3,168.2l-40.9,28.2c-33.5,25.8-96,67.9-137.5,97.5-31.1,22.2-159.6,114.1-181.8,127.9l-398,279.4c-38.6,26.6-80.1,58.7-119.8,84.8-8.3,5.5-34.7,22.8-38.2,30.5"/>
  <path class="st9" d="M2253.2,1113.8c0-9.7,13.5-41.1,17.2-51.8,10.3-29.5,9.1-44.3,23.4-44.2,3.9,10.5-18.8,66.8-24.4,82-13.7,36.7,6.2,90.7-10.8,100.3-5.2-3.4-5.4,1.9-5.4-8.8v-77.4ZM2179.6,876c0,26-1.6,38.4-4.5,63.9-2,17.5-1,24.9-4.4,41.9-4.8,24.2-15.2,66.8-14.8,91.5,15-5.5,82.9-42.8,90.1-43.7,8.2-1.1,26.1,13.1,5.8,14.3-14.2.8-7.2-1.5-30.6,10.2l-59.2,29.4c-10.2,5.3-6.9,1.8-9,13.2-10.5,57.2,21-3,9.8,64.1l-1,4.9c-2.8,12.1-8.9,5.9-14.2,16.3-4.2,8.2-5.1,53.5-7,68.8-3.1,24-5.4,19.5,7.6,34.4,44.2,50.5,40.9,59,40.9,108l-1.8,96.2c16.6-23.2,32.8-62.1,45.5-91.7,14.1-32.8-7.2-22.1,2.2-50.1l19.3-49.9c16.3-47.4,19.5-14.4,30-39.3,14.6-34.5,62.2-234.1,71.4-274.1,8.3-36,16.7-78.5,23.1-114.6,3.9-22.3,38.3-235.2,38.4-235.5-4.2.5-42.8,32.3-49.8,38.2l-97.2,85.4c-13.3,12.1-8.2,6.1-17.4,13l-64.7,57c-21.6,17.4-8.6,17.6-8.6,48.3"/>
  <path class="st5" d="M542.1,1017.8c12.4,0,10.7,5.6,14.4,16.9,3.5,10.6,6,18.5,9,27.3,24.2,69.4,17.2,39.8,17.2,129.2s-.2,5.4-5.4,8.8c-17.1-9.5,2.8-63.5-10.8-100.3-5.3-14.2-28.5-72.8-24.4-82ZM575.4,1037.8c-12.1-12.5-25.4-46-32.7-60.7-11.1-22.6-18.7-43.5-27.2-67-10.9-29.8-37.8-115.6-42-143.9,10.1,3.5,12.1,11.2,27,29,9.4,11.3,19,20.8,28.6,32.2l57.2,64.5c8.1,8.4,6.3,9.3,12.9,17.5,43.9,55,28.6,9.6,46.7,105.7,1.9,10.1,10.3,39.6,10.2,44.3,5.4,7.2,14.6,10.3,23.9,13.8.5-29.1-16.7-86.6-18.4-123.7-.9-20.7-6.2-48.7-5.4-70.8,1.1-32.8,12.7-42.3-15.3-54.9,14.5,35.7-39.2-23.1-69.3-44.5-6.6-4.7-19-16.4-24.9-22.1-5.7-5.5-89.2-76.5-90.7-81.6-3.7-12.6-2-5.9,3-8.9-5.7-6.8-31.9-29.1-39.6-33.9,5.2,25.5,11.5,83.9,17.1,117.7,12.5,74.9,26.7,159.9,43.7,233.6,17.8,77.4,32.7,143.5,55.6,220.5l15.8,53.5c6.3,15,8.3,6.7,18.4,15,6.2,5.1,9.4,17.9,11.6,24.3,3.2,9.2,5.4,15.6,8.6,24.1,3.4,8.9,7.5,16.3,10.7,25.8,9.4,28-11.8,17.3,2.2,50.1,12.9,30.1,28.6,67.8,45.5,91.7,1.6-20.4-5.9-120.5-.3-144.2,3.3-14.2,29.4-48.3,39.5-59.9,16.8-19.1,7.3-21.6,4.3-80-1.9-36.5-10.2-25.2-16.5-34.7-.3-.7-.6-2.7-.7-2.3-.1.4-.6-1.8-.7-2.4l-1-4.9c-.4-2.5-.8-7.2-1.1-9.8-1.1-8.6-1.9-11.9-.8-23.4,11.6-7.5,17.6,9.5,12-28.5-2.2-14.9,2.7-11.1-40.8-31.1l-46.2-23c-9.3-3.7-8.5-.7-19.3-.2l-1.5-7.2"/>
  <path class="st16" d="M1142,923c13,8.2,19.7,11.1,32.8,19.2,10.1,6.2,24.6,14.9,35.1,20.3,20.7,10.7,46.4,26.1,68.5,39.3,10.4,6.2,23,12.5,33.6,18.9,15.6,9.4,96.5,57.6,106,60.1,34.8-21.1,59-87.4,73.9-134.4,16.5-52.4,26.8-113.8,26.3-180.8l-255-.6c-8.2,2.9-2.8-.6-10,7.1-2.8,3-4.8,6.2-6.9,9.5l-74.4,99.8c-9.6,12.4-26.7,27.8-29.8,41.6"/>
  <path class="st9" d="M1515.3,1518.5l-24.8,217.9c26.2,27.3,63.1,59.6,87,97.3,2.3,3.6,3.2,6.2,5,8.7.3.5.8,1.2,1.1,1.7l5.9,5.8c14.7-11.3,28.1-35.1,40.7-51.2,6.3-8.1,36-42.7,39.6-51.7-6.6-4.8-22.2-9.3-17.3-20.3,9.5-2.5,11.7,3.5,22,8,6.4-11.6,12.9-38.9,17.6-54.2,7.7-24.9,46.3-151.3,49.8-168.3l-113,33.4c-23.9,7.8-87.9-18.8-113.5-27.2"/>
  <path class="st5" d="M1161.7,1734.8c10.3-4.5,12.4-10.5,22-8,0,.2,7.2,2.8-3.4,11.7-2.9,2.5-9.3,5.2-13.9,8.6,2.9,7.3,3,5.8,9,13.2,16.5,20.2,60.8,81.7,71.2,89.7,3.3-2.6,1.9-.5,5.9-5.8,3.2-4.2,2.2-3.9,5.1-8.7,4.4-7.4,6.4-8.8,11.8-15.9,12.2-16,34.6-43.3,48.2-56.9,9-8.9,19.9-17.8,28-26.3l-25.2-217.9c-142.8,47.7-72.2,30.4-226.1-6.2,5.5,26.5,24.2,80.2,32.7,110.7,5.2,18.7,11.3,38.1,16.5,55.5,4.7,15.6,12,45,18.3,56.3"/>
  <path class="st9" d="M1075.1,945c.4,10,6.1,64.7,8.4,72.4,3.2,11,25.2,21.8,43.9,35.9l235.1,165.9c5.9,4.4,44.7,31.4,49.5,32.6v-160.5c-20.4-8.6-203.6-117.9-245.2-141-47.6-26.4-41.9-25.7-91.6-5.3"/>
  <path class="st9" d="M1423.9,1091.3v160.5c8.9-2.1,15.3-9.1,23.1-14.9l260-182.3c15-11.5,41.7-27.1,44.8-35.1,2.1-5.5,8.7-66,9-74.4-52.4-21.5-44-19.9-89.8,4.4-45.4,24.1-115.5,69.6-164.5,95.5-19.8,10.5-70.1,41.2-82.6,46.5"/>
  <path class="st9" d="M1910.2,794.6c12.2-6.9,19.9-11.3,30.9-17.5,18.6-10.4,19.8-7,24.1-25.9,16.7-73.4,33.1-141.8,74.1-205,3.7-5.7,7.4-9.9,10.7-15.8-16.5-15.2-90.1-57.4-111.5-69.8-10.9-6.3-18.8-15.4-30.6-7.8-14.2,9.2-46.3,65.9-55.9,85.7-9.1,18.8-20.4,45.4-25,66-4.2,18.7,1.3,21.1,7.8,34.3,20.6,41.8,41.3,78.3,61.4,124.1,4.9,11.1,7.7,21.8,14,31.6"/>
  <path class="st9" d="M908.6,784.8c10.4-.7,10.1-11.5,13.3-20.4,14.8-41.4,39.2-83,58.7-121.4,6.9-13.7,23.6-33.6,26-47.2-8.7-31.4-22-53.3-35.2-80.6-10.1-21-32.8-58.4-51.1-66.1-17.1,4.9-121.4,69.4-134.2,81.3,22,40.3,25.3,29.3,48.3,91.5,14.3,38.8,22.1,64.8,32.2,109,11.1,48.7,3.9,29.4,42.1,53.9"/>
  <path class="st9" d="M1914.8,805.3c4.7,17.5,5.5,22.7,15.2,28.5l52,25.9,550.3-387.5c36.5-25.6,74-50.5,110.3-77.8,13.2-10,37.2-21.6,44.6-33.1-10.2,2.9-185.8,105.9-193.8,110.6-15.8,9.4-31.8,18.1-47.3,27.5l-96.3,55.8c-72.1,38-165.2,96.4-242.2,139.3-49.3,27.4-98.8,59.2-143.5,83.3-16.5,8.9-32.1,19.1-49.3,27.4"/>
  <path class="st9" d="M890.6,840.4c7.4-13,14.7-28.2,16.6-43.1l-47.4-26.8c-39.9-24.6-149.1-87.7-189.6-109l-141.4-82.5c-38.3-21.5-80-44.3-117.6-67.7l-72.1-41.2c-6.6-3.9-180.2-105.8-190.3-108.6,7.3,11.4,29.2,21.7,43,31.9,14.9,11,27.8,21.8,43.3,31.4,16.5,10.1,28,20.2,43.6,31.1,31.2,21.9,109.1,77.6,132.1,91.8,15.4,9.5,27.5,21.2,43.3,31.4,42.8,27.7,189.5,132.2,222.1,156.9,14.2,10.7,28.4,19.4,44,30.4l133.7,93.5,36.7-19.4"/>
  <path class="st9" d="M1982.3,1363.5c18.5,7.6,114.7,59.7,127,68.1,10.7-9.4,23.4-40.1,40.5-29.5,4.5,2.8,14.2,15.1,16.5,22.7,4.7,15.4-14.8,41.1-23.7,54-12.1,17.3-2.6,42.7-6.5,73.9-4,32.1-2.2,20.2,7.7,29.2,0,37.5-11.9,30-14.2,51.6-1.8,16.4,1.4,49.9-9.2,60.4-15.7-5.5-1.4-30.7-3-52.3-.6-7.5-.2-4.9-2.5-8.8-13.6,9.1-9.3,10-13.2,45.6-2.2,20-3.8,36-7.9,56.5,16.5-7.8,39.9-30.5,48.5-43.4,25.5-38.2,27.1-183.7,33.5-234.1,3.6-27.9,1.2-58,1.4-86.6.2-26.3-4.4-35.7-25-62.2-14.7-18.9-71.6-81.4-92.7-86.6-27,32.3-63,98.5-77.2,141.5"/>
  <path class="st9" d="M1336.5,1541.5c-1.5,25.5,6.2,71.4,9.4,97.5,3.2,26,5.8,72,12.6,95.6,16.9.3,41.1-4.7,59.5-4.7s42.6,5.1,59.5,4.7c7.5-26.1,10.3-77.9,14.1-107.8,4.5-35.8,10.6-75.2,11-113.2h-115.9c-6.2,9.8-19.1,17.9-29.9,23.4-6.8-8.7-13.7-11.7-20.4-20l.2,24.5"/>
  <path class="st5" d="M877.2,1394.7c2.4,10.9,41.2,84.2,49.6,99.5,17.8,32.5,97.8,180.6,100.7,197.4,7.2,41.3,6.5,96.4,9.6,140.5,11.5,5.1,26.9,7,37.2,12.3,1.5,43.1-1.6,30.9-35.4,23.5l7.2,119.7c6.7,11.4,30.4,20.5,46.5,20.1,1.8-11.7-6.2-156.3-8.8-186-2.4-27.7-5.2-65.7-6.8-93.9-2.6-45.6-.2-45.8-18.9-82.8l-23.2-51.3c-2.7-6.5-5.5-10.3-8.6-16.5-23.3-48-77.5-165.5-95.1-208.4-13.1,2.1-38.4,21.2-54.1,25.9"/>
  <path class="st9" d="M1883.1,1420.8c-4.9,4.2-104.2,221.8-115.8,247.1-10.3,22.4-15.5,139.4-15.5,167.7,0,27.2-12.8,157.6-7.5,170.9,14.3,2.9,36.2-8.8,44.9-16.1l7.6-122.5c-33.9,7.5-36.9,20.7-35.2-23.5,10.3-5.3,25.7-7.2,37.2-12.3,9.1-132.1-9.8-124.6,58.7-240.1,6.1-10.2,98.5-186.8,98.7-190.8l-.6-3.8c0-.4-.2-1.4-.6-1.9-11.7,9.8-52.3,13.4-72,25.2"/>
  <path class="st9" d="M1274.3,731.1c25,5.3,205.1,3.7,237.8,1-5.6-13.2-11.9-37.7-17.8-53.9-14-38.1-21.3-46.1-35.1-75.4-8.3-17.5-34-57-38.9-73.5-26.3-10.4-122.1,153.2-131.5,173.4-4.8,10.3-9,19.2-14.5,28.5"/>
  <path class="st24" d="M1235.7,2026.2c.3-18.2-7.4-57.2-9-80-4.7-69,25.5-21.9-51.2-119.8-14.8-18.9-17.7-26.9-39.5-51.8-5.3,9.6-3.4,17.8-13.8,21.9-11.7-11.1,7.6-26.2,1.6-48-5.2-19-11.1-37.4-16.2-56l-47-163.5c-8-28.4-55.3-108.5-78.5-135.2-.3-.4-1-1.1-1.6-1.7,6.9,27.8,18.8,58.2,27.5,84.6,9.4,28.7,18,53.4,28,83,9.9,29.4,19,51.8,32.1,78.3,22.8,46,19.1,37.4,20.9,89.8,1.4,40.4,3.4,59.8,16.9,93.6,21.1,53,97.5,183,129.9,204.8"/>
  <path class="st9" d="M1973.2,1347.1l7.1-11.4c1.8-3.8,2.7-6.4,4.9-11.3,11-24.4,34.6-67.3,49.4-88.9,26.2-38.1,16.8-8,21.3-85.9,2.5-42.2,8.8-86.2,14.1-124.5,5.7-41,24.2-102.3,26-116.5-14.9,8.2-25.9,20.9-38.6,31.9-12.7,11-22.7,21.7-37.7,31.2-10.7,6.8-10.1,5.8-12.7,21.3-11,64.9-20.7,153.2-27.7,217.2-2.4,21.9-4.3,41.4-4.3,66.8,0,24.3-3.1,49.2-1.9,70.2"/>
  <path class="st5" d="M862.8,1347.1c3.4-57.9-12.3-204.7-20.7-260.8l-12.5-88.6c-4.1-26.8-4.5-17.6-49.7-55.9-13.6-11.5-24.5-24.6-40.1-33.1,2.1,16.3,10.6,37.4,14.3,55.8,12.8,63.9,21.9,116.9,25.9,185.2,6.6,113.6-1.4,28.7,57.6,149.1,3,6.1,21,43.6,25.2,48.4"/>
  <path class="st5" d="M1024.6,1818.2c2.1-31.9-3.3-40-16.5-56.7-11.3-14.4-94.3-128.9-98.9-130.8-14-1-27.4-.7-39.4-2.1-15.4-1.8-28.6,3.2-35.1-6,3.7-7.6.7-8.1,30.3-6.7l34.8,3.3c-7.2-12.1-11.5-22-20.4-27.8l-142.1-13c0,34.2-2.1,21.3,40.8,56.8,14.4,11.9,7.9,6,20,12.9,11.2,6.4,26,21.5,36.8,29.8l38.8,27.7c12.5,9.8,24.9,20.2,36.7,29.5l75,57.6c14,11.2,5.5,5.8,19.6,13.7,8.6,4.8,11.5,10,19.6,11.8"/>
  <path class="st5" d="M931.3,1149.5c23.1.6-1.8-6.4,19.4-7.8,4.6,8.6,6.8,48.5,7.5,63.4,1.2,26.4,10.8,24.6,72.1,47.5l134,53.9c15,5.7,55,24.8,68.6,26.1-6-10-157-137.3-172.4-151.7-8.2-7.7-11.5-7.3-20.5-15.4-13-11.9-25.1-22.6-38.2-33.6l-57.5-50.5c-7.5-6.9-14.1-9.2-21-16.2-1.1,9,5.2,76.7,8,84.3"/>
  <path class="st9" d="M1603.1,1332.7c14.4-1.4,53-20.1,68.6-26.1l199.8-80.3c11.9-10.5,3.9-66.3,13.8-84.6,21.1,1.4-3.7,8.5,19.4,7.8,2.4-20.1,10.1-66.9,8-84.3l-124.2,106.6c-6.8,4.7-4.7,1.8-11.5,7.8-6.3,5.5-12.4,11.1-18.9,17-41.9,38.2-80.9,67.6-116.2,99.5-9.9,9-33.3,27.4-38.7,36.5"/>
  <path class="st9" d="M575.4,1037.8c15.7-14,15.2-8.7,37.1,2.1,13.9,6.8,29.9,17.7,43.6,19.7,0-4.6-8.3-34.2-10.2-44.3-18.1-96.1-2.8-50.8-46.7-105.7-6.5-8.2-4.8-9.1-12.9-17.5l-57.2-64.5c-9.6-11.4-19.2-20.9-28.6-32.2-14.9-17.9-16.9-25.5-27-29,4.3,28.3,31.1,114.1,42,143.9,8.6,23.4,16.1,44.4,27.2,67,7.3,14.7,20.5,48.2,32.7,60.7"/>
  <path class="st24" d="M1654.4,1832.4c18.5,13.9,10.8,92.4,9.5,108.7,13.9-13.1,55.5-92.4,65.5-117.7,28.3-71.7,7.2-119.2,26.3-159.1,20.8-43.3,37.7-82.5,53.8-131.5,7.8-23.6,15-44.4,22.6-68.3,7.7-24.4,17.3-47.5,23.5-72.3-6.5,6.4-9.6,12.6-14.7,20.2-55.3,81.7-55.4,80.4-80.1,168.4l-47.8,165.5c-8.3,29.1,14.8,37.2,1,50.2-10.4-4.1-8.5-12.3-13.8-21.9l-45.6,57.9"/>
  <path class="st23" d="M1459.1,2169.5c9.2-26,13.7-20.1,10.1-52.2-2.3-20.7-4.7-37.5-8-56.7-3.4-19.5-5.6-35-11-55.5-4.3-16.5-3.1-8.7-15.8-17.1-17-11.2,1.7-15.6-16.3-15.6s1.5,5.3-18.1,16.5c-12.8,7.3-10.6,1.8-14.5,18.5-8.8,37.2-14.1,74.1-18.8,112.3-3.4,27.8,2.4,27.1,10.7,49.9h81.8"/>
  <path class="st9" d="M2051.1,1637.4l-.8-19.4c-9.3-3-36,.3-49.2.4.5,19.5-58.7,5.6-74.3,12.3-8.4,7.6-26,31.4-32.8,42l-64.8,87.3c-12.7,16.3-21.1,25.4-17,57.6,12.2-4.4,45.5-33,58.9-43.3l180.2-136.9"/>
  <path class="st4" d="M1019.5,1755.2c2.6-40.4-2.7-69.7-19.7-98.7l-63.2-119.3c-13.2-27.2-55.3-100.8-62.3-117.8-1.2,6.3.3,126.7,7.7,139.8,2.4,4.2,2.1-.5,5.7,7.4,5.3,11.6-6.8,7.6,27.1,50.5l78.9,103.8c10.4,13.2,13.6,21.6,25.9,34.3"/>
  <path class="st9" d="M664.4,1341.2c5.8,17.7,5.1,15.8,15.2,30,6.7,9.4,15.5,18.4,18.8,29.2,11.2,6.1,18.4,22.6,28.3,31.3,19-13,41.5-24.1,63.5-35.8,10.2-5.4,61.5-29.5,61.6-34.8-26.3-5.8-123.5-73.5-148.6-76.6-7.2,9.7-13.8,16.5-20.7,25.7-6,8.1-16.4,25.2-18.2,31"/>
  <path class="st9" d="M1977.5,754.2c15.2-3.7,30-15.9,44.2-23.8,51.9-28.9,25.5-14.1,60-81,10-19.4,19.1-26,33.2-38.8-7.4-18.4-36.8-65.2-58.9-70-22.2,46.1-21,20.3-48.2,98.8-8.5,24.6-29.3,89.4-30.3,114.8"/>
  <path class="st5" d="M721.1,610.6c12.9,11.7,22.8,18.7,32.2,37,34.3,66.7,10.6,55.3,59.2,81.8,14.9,8.1,30.5,21,45.9,24.8-1-25.4-21.7-90.2-30.3-114.8-27.2-78.4-26.4-53.6-48.2-98.8-11.2,2.4-2.5-.7-10.9,4.4-13,8-42.1,50.8-48,65.5"/>
  <path class="st23" d="M1364.4,1818.1c.5,33.4,6.6,91.4,17.6,116.4,21.7-3.6,50.1-3.6,71.9,0,12.9-29.2,17.7-92.9,17.4-132.2-38-4.5-62-2.1-98.6-.7-1.8,7.3-2.3,10.9-8.3,16.5"/>
  <path class="st5" d="M925,1213.2c-.1-19.5-4.3-48.5-6.5-67-2.8-24-4.5-43.7-7.6-68.2-4.3-34.4-1.3-26.2-45.8-63.8-9.9-8.3-10-11.2-23.3-17.5l20.7,159.1c12.8,101.4-1.3,93.8,34.9,73.3,10.3-5.8,18.7-8.5,27.6-15.9"/>
  <path class="st9" d="M1911,1213.2c8.3,6.8,16.1,9.7,25.8,14.9,38.9,21.1,22.5,29.8,41.4-110.8l16-120.7c-10.5,4.9-52.3,41-61.7,50.9-8.6,9-13.2,84-14.9,98.6-2.1,18.4-6.3,47.5-6.5,67"/>
  <path class="st4" d="M1032,1931c-5-25.4-2.7-56.5-4.9-84.2-1.7-20.8-19.3-23.2-42.5-42.2l-97.2-73.9c-1,19.2-2.9,64.2,8.8,76.5,6.7,7,14.4,12.6,21.9,19.5,8.3,7.6,13.8,14.6,22.3,22.1,24.4,21.6,54.5,52.7,77.1,71.9,8.3,7,6.2,6.7,14.5,10.5"/>
  <path class="st21" d="M1917.7,1617.8c2-27.5,38.9-171.2,33.8-179.6-10.4,16.8-29.3,57.9-38.6,73.7-21.1,35.8-55.9,106.2-78.6,148.2-15.6,28.7-20.3,55.9-17.7,95.2,12.2-12.6,14.4-19.6,24.7-32.8,10.7-13.6,74.7-96.1,76.4-104.7"/>
  <path class="st9" d="M1766.4,1011.6l89.3-62.8c25.2-15.8,89.5-62,114-80.3-6.1-5.8-21.8-12.1-31.8-17.5-20.3-10.9-20.7-8.9-61.5,21.7l-87.3,62c-18.9,11.6-15.8,6.7-18.9,31.8-1.5,12.5-4.4,30.8-3.8,45.2"/>
  <path class="st12" d="M1261.2,1399.3l21.3-22.6c-9.6-17.7-28.3-20.7-48.5-29.1l-173.7-69.3c.2,18.8,2.7,19.1,10.5,30.6,43.3,64.4,19,48.9,124.2,75.2,15.7,3.9,49.5,14.2,66.1,15.2"/>
  <path class="st12" d="M1552.9,1377.3l22.5,21.4c16.4-.3,105.5-24.9,127.6-30.1,35.3-8.3,26.8-9.9,45.7-34.8,6.9-9,8.1-12,15.4-23.2,8-12.5,11.4-12.4,11.6-32.3l-171.7,68.4c-20.5,8.7-40.7,11.9-51.1,30.5"/>
  <path class="st5" d="M698.4,1400.4c-3.3-10.9-12-19.8-18.8-29.2-10.1-14.2-9.4-12.3-15.2-30-3.1,3.7-1.6-4.2-4.9,8.9-1,3.9-.8,8.3-.8,12.5-.3,81.7,5.2,233.2,25.1,305.7,7.6,27.5,35,55.7,58.3,66.8-3.8-19.4-5.7-35.3-7.6-54-.9-9-1.7-16.9-2.9-27.2-1.8-15.8.4-13.5-10.5-20.9-9.9,16.2,12.5,54.9-5.5,61.2-10.3-10.2-7-41.5-9.2-60.6-2.5-21.8-14.2-14-14.2-51.5,8.3-7.6,10.8-2.4,9.2-19.5-1-10.7-2.3-17.3-2.2-31.1.1-24.8,4.4-38.2-8.2-55.6-24.1-33.4-28.7-44.7-13.1-65.1,5.6-7.3,8.3-11.3,20.4-10.3"/>
  <path class="st24" d="M1588.8,1872.3c-2.9-4.3-70.2-43.2-74.5-44.8,2,18.1,9.1,40.6,12.6,59.8,4.2,22.5,4.6,38.5,7.1,61.1,3,26.5-5.6,41.2,13.5,56.3,9.8,7.7,32.2,32.2,38.1,27.2,8.6-7.3,17.6-138.5,3.2-159.6"/>
  <path class="st18" d="M1332.3,2092.1c1.4-4,4.9-33.7,5.9-41,1.8-12.9,4.4-26,6.9-36.6,16.1-67.2,29.8-61.6,23.7-81.9-13.8-46.2-15.7-89.9-16.1-140.1-6.1,5-7.8,8.4-10.8,16.7-20.2,54.7-37.9,160.1-26.8,212.1,3.3,15.5,10.6,62.7,17.3,70.8"/>
  <path class="st5" d="M703.2,1284.5c25.1,3.2,122.3,70.8,148.6,76.6-9.1-38.2-52.6-111.7-75.3-139-13.7,3.5-42.4,32-54.7,44.4l-18.5,18"/>
  <path class="st21" d="M1823.5,1827.8c-26.1,7.8-8.8,47.8-19.5,103.2l10-6.5,114.9-108.4,3.3-38.6c-17.1,4.9-37,17.7-54.7,25.6-14.6,6.5-40,21.4-54.1,24.6"/>
  <path class="st4" d="M1803.1,1983.5c36-25,65.2-54.7,98.2-82.1,17.4-14.5,93.3-74.8,104.6-81.4-5.3-4-16.7-4.6-22.9-7.6-4.4-2.1-13.6-10.1-16.8-12.9-4.6,2.3-157.6,146.6-158,147.2-6,8.7-7.6,25.8-5.1,36.8"/>
  <path class="st13" d="M1663.9,1941c1.3-16.3,9-94.7-9.5-108.7-18.9,32.4-49.8,50.7-47,76.6,2.6,23.5.6,35.8-.4,59.3-.9,18.9-6.9,42.5-6.7,57.9,14.9-9.9,60.3-71.8,63.6-85.2"/>
  <path class="st5" d="M1274.3,731.1c2.1,2,0,3.4,13.6,4.3,31.2,2,247.3-.8,273.1-1.4-2.8-29.8-76-131.2-95.2-160.2-11.8-17.9-27.2-35.8-45.4-44.6,4.9,16.5,30.6,56,38.9,73.5,13.8,29.3,21.1,37.3,35.1,75.4,6,16.3,12.2,40.7,17.8,53.9-32.7,2.7-212.8,4.3-237.8-1"/>
  <path class="st5" d="M813.9,1892.5c14.4,9,110.3,73.9,117.4,72.7,11.5-5.9,17.2-15.9,19.6-32.9-8-8.4-17.6-17.3-26.4-23.5-8.3-5.8-7.5-4.5-14.4-10.5-15-13-58.9-51.7-70.7-55.7-2.5,21.3-6.8,43-25.6,49.9"/>
  <path class="st24" d="M972.9,1354.4l43,67.6c9.1,13.6,34,59.4,42.7,66.4,3.9-5.5,19.4-38.7,18.9-45.1-.5-6.3-69.1-115.9-77-125.5-5.6,4.7-23.8,30.9-27.6,36.6"/>
  <path class="st9" d="M1603.3,1485.2c-.5,14,10.2,37.6,13.7,51.4,19.9-5.1,42-12.4,61.5-18,20.2-5.8,42.5-11.8,62-19.1-2.1-14.6-14.1-29.9-17.7-45.2-18.6,3.1-41.3,9.9-60,15.1-19.5,5.5-39.2,9.3-59.4,15.8"/>
  <path class="st9" d="M1061.3,946.5c-60.3-11.2-43.6-.7-96.6-37.5-12.8-8.9-68.5-51.4-82.2-48.2-8.8,1.3-10.4,2-16.3,7.6,15,11.2,31.8,24.4,48.7,34.9l154.6,108.3c.6-13.9-3.1-56.2-8.2-65.1"/>
  <path class="st5" d="M1911.1,1356.1c15.7,9.6,32.3,18.9,50.1,27.1-.6-37.1,1.8-67.2,2.3-103.5.4-31.1,1.6-21.6-19.5-33.7-8.7-4.9-23.8-14.3-31.9-17l-.9,127.1"/>
  <path class="st5" d="M1095.6,1499.5c19.3,7.3,41.9,13.4,61.9,19.1,19.4,5.6,41.6,13,61.5,18,3.5-13.7,14.2-37.5,13.7-51.4l-119.4-30.9c-3.6,15.2-15.5,30.7-17.7,45.2"/>
  <path class="st13" d="M1804.1,586.5c6.3-4.6,4.9-2.4,8.7-15.8,5.2-18.5,14.1-35.3,22-52.2,15.1-32.5,35.1-50.2,36.4-63.3-14.4-6.9-26.7-16.2-43.3-21.9-15.2,23-27.9,46-39.8,74.7-20.2,48.4,1.3,41.6,16,78.5"/>
  <path class="st23" d="M1520.7,2013.8c-5.1-6.7-5.2-17.9-6.2-26.3-2.8-24.4-18.1-150-31.8-164.6,1.4,20.6-4,55.1-7.3,75.5-10.3,64.2-17,26.3-1.3,60.7,21.2,46.3,24,117.6,29.5,133,6-7.5,16.4-62.6,17-78.2"/>
  <path class="st24" d="M1305,1837.7c6.1.4,1.7-1.8,5.1,1.7-8.2,10-60.5,111.6-59.5,134.2.8,18.7,6.9,38.1,7.1,56.4,6.8-3.4,37.1-29.8,42.7-36.8.1-31.6,1.8-58.2,5.5-87.5,3.5-28.3,12.5-52.2,15.8-78.1-8.9,2.5-10.3,3.6-16.7,10.1"/>
  <path class="st5" d="M1920.4,1930c3.6-10.6,6.6-10.1,15.2-16.5,6.2-4.6,9.4-8.1,15.6-12.1l32.1-23.8,5.8,17.7c-8.4,6.8-56.1,30.8-68.7,34.7ZM1885.1,1932.3c2.4,17,8.1,27,19.6,32.9,10-1.5,42.7-24.6,59-34.8,20.6-13,38.3-25.4,58.5-38-18.8-6.8-23.1-28.6-25.6-49.9-11.7,4-55.7,42.7-70.6,55.7-6.9,6-6.1,4.7-14.4,10.5-8.8,6.2-18.4,15.1-26.4,23.5"/>
  <path class="st9" d="M2277.5,582.1l147.6-84.4c14-9.2,8.9-10.4,12.6-60.5-13.9,5.2-34.3,23-43,30.3-44.6,37.2-81.2,66.7-117.2,114.7"/>
  <path class="st5" d="M2001.1,1618.4c13.2-.1,39.9-3.4,49.2-.4l.8,19.4c11.2-6.8,20-15.5,30.2-23.4,16.6-12.8,17.5-7.9,17.4-36.1l-142.2,12.7c-8.8,6.5-13.2,16.5-20.4,27.8,20.2,0,47-6.1,65,0"/>
  <path class="st17" d="M1136.3,1749.4c8.7-2.5,6.1-2.9,12.5-7.9-4.5-21.5-34.8-118.8-43.4-146.7-7.7-24.9-14.7-50.1-22.4-74.1-9-27.9,11.8-47,18.6-70.8-12.8-2.7-10-5.4-16.5,5.8-33.6,57.6-12.4,71.7,3.5,133.2,6.4,24.8,40.4,141.9,47.8,160.5"/>
  <path class="st13" d="M1053.3,527.6c-2.4-18.5-9.7-26.1-15.9-42.4-6-15.6-13.7-23.9-20.2-37.4-10.3.1-35.3,14.6-42.1,21.7,3.3,8.3,9.1,15.3,13.5,22.8,5.1,8.7,9.7,15.3,14.1,24.7,3.8,8.1,7,14.8,11.4,24.6,4.3,9.6,5.9,19.8,10.8,27.8,9-15.3,18.1-31.1,28.4-41.9"/>
  <path class="st9" d="M922.3,1357c2.6-16.2,3.3-42.3-.7-57.9-6.6-7.8-42.1-35.2-49.1-38.9l3,123c14.4-6.9,34.6-16.8,46.8-26.3"/>
  <path class="st25" d="M853.5,1813.7c13,8.2,28.6,24,40.3,34.5l98.2,84.1c9.8,8,10.3,10.4,10.4,25.4,6.8,10.1,18,17.1,30.4,25.8,8-35.8-15-45-27.2-56.4l-89-85.2c-8.1-8.2-39.9-38.8-46.9-42.3-5.7,5-10.5,8.3-16.2,14.2"/>
  <path class="st24" d="M1686.6,1741.5l10.4,7.5c4.5-5.5,64.5-207.1,71.1-235.7,3.6-15.5-9.2-38.1-17.3-55-5-10.4-4.2-9.8-16.7-8.9,4.4,23.3,27.2,43.2,18.9,68.6-17.9,55.1-38.7,128.3-55.3,185.2-3,10.3-9.8,28.3-11,38.1"/>
  <path class="st13" d="M1819.5,1344.3c-10,10-61.5,91.7-61,101.2.3,6.2,12.5,30.8,16.4,37.5,9-4.9,31-54.1,36.8-66.8,15.2-32.9,25-34.6,23-78l-15.3,6.1"/>
  <path class="st13" d="M1257.7,2029.9c-.2-18.3-6.3-37.8-7.1-56.4-.9-22.5,51.4-124.2,59.5-134.2-3.4-3.5.9-1.3-5.1-1.7-12.6,4.3-30.8,18.3-44.7,25.5-13.7,7.2-12.7,3-17.1,19.2-9.2,34.6-2.9,94.1,2.6,130.3,5.5,36.4,9.4,19.9,11.8,17.3"/>
  <path class="st5" d="M882.5,860.9c13.8-3.2,69.5,39.3,82.2,48.2,53,36.8,36.3,26.3,96.6,37.5-6.3-9.5-12-9.8-21-16.4l-110.2-77.9c-7.4-5.5-11.9-10.7-22.9-6.1-3,1.3-9.4,4.8-12.9,6.6-1.7.9-4,2-5.4,2.9-4.7,3-3.4,1.9-6.4,5.2"/>
  <path class="st9" d="M1153.1,834c4.7-1.7,38.8-33.8,51.6-44l7.5-6.4c4.2-3.2,7.8-5.2,12.8-9.2,41.1-32.9,23-18.7,56-82.3,6.2-12,9.7-17.5,15.5-28.6,6.4-12.3,12.9-18.4,17.2-31.7-10.2,6-1.3.1-6.6,6.1-35.1,40-131.4,157.4-154,196.1"/>
  <path class="st5" d="M1682.9,834c-14.3-24.4-145.4-193.4-160.6-202.2l46.8,87.5c3.9,8.4,10.8,26.6,14.7,32.4,2.8,4.2,40.8,33.2,50.7,40.7,8.9,6.8,16.4,12.9,24,20.1,7.7,7.4,14.2,17.8,24.4,21.5"/>
  <path class="st9" d="M431.2,508.5c5.7,5.1,120,70.8,127.3,73.6-22.9-30.5-47.9-54-75.9-81.4l-53.4-42.6c-2.9,4.2-.8-.7-1.4,4.8l1.1,19.8c.8,6.7,1.8,16.7,2.3,25.8"/>
  <path class="st13" d="M2098.7,945.2c18-3.3,26.4-31.9,42.5-31.9,4.2,12.1-4.8,15.7-12.7,23.5-7.6,7.4-13,14.5-21.5,20,2,11.1,5.3,30.6,8.5,40.5,12-4.1,15.4-11.3,23.8-19.3,12.7-11.9,17.6-7.6,15-27.9-3.3-26.7-5.2-51.7-17.5-74.2-23.4,1.5-33.7,52.3-38.2,69.4"/>
  <path class="st24" d="M720.4,997.2l8-38.3c-17-23.5-39.3-29.5-33.6-45.6,10-.2,14.9,9,21,15.1,6.9,7,11.1,14.8,21.5,16.7-4.3-16.4-15-67.9-38.2-69.3-12.1,22.7-14.3,47.5-17.5,74.2-2.3,19.3,1.3,15.4,13.6,26.6,8.7,7.8,12.7,16.3,25.2,20.6"/>
  <path class="st24" d="M734.8,1501.7c29.3,2.9,41.1,3.9,71.2,1.9l-.2-70c-9.5.6-34.5,16.7-44.5,22-20.7,10.9-26.4,14.9-26.6,46.2"/>
  <path class="st24" d="M1053.3,527.6c-10.3,10.8-19.4,26.5-28.4,41.9-4.8-8-6.5-18.2-10.8-27.8-4.3-9.8-7.6-16.5-11.4-24.6-4.4-9.4-9-16-14.1-24.7-4.4-7.5-10.2-14.5-13.5-22.8,6.8-7.1,31.8-21.6,42.1-21.7-4-9.5-3.5-6.3-9.1-14.5-13,4.6-46.5,21.5-53.2,30.7l36.7,64.1c6,11.7,10.7,21.8,15.6,34.1,4.7,11.8,11,28.7,13.1,40.4,7.1-9.8,15.4-24.3,22.7-35.3,5-7.5,8.1-12.5,11.4-19.1,5.1-10.2,4.8-12.1-1.1-20.6"/>
  <path class="st24" d="M2029.9,1503.3c25.4,3.6,48.8-1,71.3-1.6-.2-29.2-5-35-24.7-45.3-10.7-5.6-36.8-22.3-45.6-22.9l-.9,69.8"/>
  <path class="st5" d="M908.6,784.8l17.3,9.6c8-12.5,13.6-32,22-48.6l47.9-95.9c11.5-21.8,17.8-26.4,13.5-45.5l-2.7-8.6c-2.3,13.6-19,33.4-26,47.2-19.4,38.4-43.8,80-58.7,121.4-3.2,8.9-2.8,19.8-13.3,20.4"/>
  <path class="st25" d="M1951.5,1438.2c5.1,8.4-31.8,152.1-33.8,179.6,10.8-5.7,27-33.9,27.5-35.1,4.8-13.8-3.9-4.3,7.9-21.9,10.2-15.2,10.1-134.2,8.8-141.3-3.1,7.6-6.5,10-10.3,18.7"/>
  <path class="st9" d="M1514.4,1506.6c29,3.5,60.1,21.4,88.2,26.7l-13-45.7c-17.2-1-61-20.5-65.2-20.8-10.9-.6-5.7-.1-7.3,6.4-.5,1.9-2.7,31.3-2.7,33.4"/>
  <path class="st5" d="M1246.4,1487.6l-13.4,45.5c28.5-5.1,59.6-23,88.6-26.5.7-75.2-20.4-22.1-75.2-19"/>
  <path class="st21" d="M1002.5,1957.7c0-15-.7-17.4-10.4-25.4l-98.2-84.1c-11.7-10.5-27.3-26.3-40.3-34.5-2.1.3-9.7,1.1-11.2,1.4-4.9,1.1.5-.6-4.9,1.3-6.1,2.1-3.4.5-7.4,3.5,31.5,18.7,57.4,45.1,86.7,68.9l85.6,68.9"/>
  <path class="st24" d="M839.4,1418v96.8c0,15.3,16.3,28,28.5,34l-6.8-144.4c-9.3,2.9-16.7,4.4-21.6,13.6"/>
  <path class="st25" d="M1823.5,1827.8c14.1-3.2,39.5-18.1,54.1-24.6,17.7-7.9,37.6-20.7,54.7-25.6l-3.3,38.6c15.1-10.2,16.3-11.2,18-35.5,1.1-16.5,2.6-30.5,1.6-50l-94.2,71.4c-17.3,13.9-24.7,14.3-30.9,25.7"/>
  <path class="st24" d="M1968.9,1548.8c32.5-16.6,27.9-33,27.7-50.6-.7-83.1,8.7-84-21-93.8l-6.7,144.5"/>
  <path class="st9" d="M1422.7,1486.9c-.4.7-1.3.8-1.6,1.9-1.2,4.4-7.9,3.1-13.1,12.9,19,.7,79.5,2.9,94.3-1.6l4.9-38.7c-13.9,0-43.7-2.5-55.3,1.4-1.5.5-27.7,18.5-29.3,24.1"/>
  <path class="st9" d="M641,823.9c-3.4-7.4-124.4-108.6-135.8-119.1-8.6-7.8-36.9-35.3-46.2-38-5,3-6.7-3.7-3,8.9,1.5,5.1,84.9,76.1,90.7,81.6,5.9,5.7,18.3,17.3,24.9,22.1,30.2,21.4,83.8,80.2,69.3,44.5"/>
  <path class="st5" d="M1408,1501.7c5.2-9.7,11.9-8.5,13.1-12.9.3-1.1,1.2-1.2,1.6-1.9-18-2.1-22.9-17.3-36.6-23.3-11.8-5.1-42.7-2.1-57.3-2.2l4.4,38.6c15.8,4.6,56.7,2.1,74.8,1.6"/>
  <path class="st5" d="M1742.8,923.4c-5-20.9-94.2-104.9-113.6-120.4-4.9-3.9-14.8-9.7-18.8-13.7,14.1,21,67,90.2,84.2,111.6,17.5,21.7,17,16.8,48.1,22.6"/>
  <path class="st5" d="M1093.2,923.4c43.6-8.1,31.9-1.2,76.2-58.2,9.3-11.9,18.2-26,27.9-38.4,10.7-13.6,18.1-22.4,28.3-37.6l-35,28c-15.6,13-92.8,87-97.4,106.1"/>
  <path class="st24" d="M2020.8,1737.3c-27.2,0-22-21.6-25.1-42-7.6,8.8-3.9,42.4-4,56.3,34.6,13.9,22.5,23.5,60.9-.4,28.1-17.5,34.1-15.8,34.4-59.2-12.2,4.9-43.5,45.2-66.1,45.2"/>
  <path class="st24" d="M844.4,1751.6c-.2-14,3.5-47.5-4-56.3-3.1,20.3,2.1,42-25.1,42s-29.9-14.5-36.4-20.2c-7.9-7-23.1-22.4-29.6-25,.2,41.5,4.6,40.8,32.6,58.2,40.2,25,26.5,15.9,62.6,1.4"/>
  <path class="st9" d="M2008.4,1835.5c.3,20.3,5,37.6,17.2,46.6,16-5.6,16.9-17.1,27.5-41.9,7.9-18.4,13.2-34.7,19.5-52.2-15,3.1-60.8,38-64.2,47.4"/>
  <path class="st5" d="M810.4,1882.2c12.3-9,16.9-26.4,17.2-46.6-1.2-7.3-48.6-44.1-64.3-47.4,6.1,16.7,11.5,32.9,18.7,50.3,3.3,7.9,6.7,17,10.6,25,6.7,13.6,5.8,14.7,17.7,18.8"/>
  <path class="st24" d="M1842.1,1251.3c-.8,39.5-5.9,50.9,20.1,81.8,8.7,10.4-.7,3.5,10.7,8.9,6.5-17,3-80,2.5-104.1l-33.4,13.4"/>
  <path class="st24" d="M963.1,1342c11-5.2,21.5-22.6,27.1-33.7,6.9-13.5,3.9-38.6,3.4-56.2l-32.7-15c-.8,25-4.4,88,2.1,105"/>
  <path class="st24" d="M1844.7,1467.6c14.8-18.4,34.6-75.2,46.9-98.5,7.4-14,7.7-10.6,7.8-28.4.1-21.7,2.9-101.5-2.9-109.7-12,.8-6.5-3.2-9.2,7.1-3.7,14.3,6.8,78.9-6.8,119.5-6.3,18.8-33.7,97.4-35.7,110"/>
  <path class="st24" d="M991.4,1467.6c-2-12.5-29-89.7-35.1-107.9-14.7-44.2-4.1-95.5-7.2-119-1.6-12.5,1.7-8.9-9.5-9.6-4.8,6.7-7.1,116.2,3.8,136.3,13.1,24,32.5,81.2,47.9,100.3"/>
  <path class="st6" d="M1482.7,1822.8c13.7,14.7,29,140.2,31.8,164.6,1,8.5,1.1,19.6,6.2,26.3.4-.7.8-2.7.9-2.3l2.2-10c2.2-24.5-4.1-87.2-8.3-109.1-3.8-19.8-14.6-85.3-32.1-99.9l-.6,30.3"/>
  <path class="st6" d="M1364.4,1818.1c6-5.5,6.5-9.2,8.3-16.5,36.6-1.4,60.6-3.8,98.6.7l-1-23.5c-25.2-4.5-79.6-4.5-103.6,0-4.2,11.8-2.3,26.5-2.4,39.3"/>
  <path class="st24" d="M710.1,1260.1c6.7-4.8,5.8-.6,5.8-13.6,0-24.7-4.8-70-7.8-98.6-2.6-24.3.6-22.1,11.7-38.2,12.3-17.9,6.2-23.8,5.6-43.8-9.4,4-29.8,17.7-30.8,28.8-.4,4.6,2,19.2,2.4,27.3,1.2,23.6,8.8,127.3,13.1,138.1"/>
  <path class="st11" d="M1266.1,751.6c9.8,4.2,289.3,4.7,303,0-3.7-8.1-60.2-5.8-70.9-5.9l-215.9-.2c-17.8.2-9.9-.3-16.2,6"/>
  <path class="st24" d="M2125.9,1260.1c1.6-3.9,15.5-138.8,15.5-163.3,0-12.9-19.8-26.3-30.8-31-.6,21.5-6.7,26.4,6.7,45.4,16.8,23.8,11.6,13,10.1,44-.9,18.4-3.4,39.6-4.6,55.4-2.2,26.7-6.8,42.3,3.1,49.3"/>
  <path class="st24" d="M1819.5,1344.3l15.3-6.1c2,43.4-7.8,45.1-23,78-5.9,12.7-27.9,61.9-36.8,66.8,4.4,14.8,1.9,6.3,32.2-38.3l56.1-90.3c-3.8-5.7-22-31.8-27.6-36.6-6.5,7.9-13.2,17-16.1,26.4"/>
  <path class="st7" d="M1140.7,1759.4l43.1,61.4c7.9,10,14.2,17,22.3,27.4,10.9,13.9,15.1,15.1,21.1,30.8,22.4-13.9-1.2-33-29-69.7-8.5-11.3-17.2-21.1-25.9-32.3-10.9-14-12.4-25.3-31.7-17.6"/>
  <path class="st24" d="M2110.5,1044.7c3.8,7.7,3.7,6.2,14.4,14.9,7.4,6.1,8.9,9.4,18.8,13l14.7-92.7c-13.8,6.2-18.4,15.5-28.9,24.2-18.4,15.2-15.5,10.9-19,40.6"/>
  <path class="st5" d="M1357.5,1747.1c.5,10.3,1.6,12.4,6.1,20.9,34.9-6,74.1-6,108.9,0,4.5-8.6,5.6-10.6,6.1-20.9-92.9-6.1-28.2-6.1-121.1,0"/>
  <path class="st24" d="M693.7,1072.4c8.7-3.4,8.9-5.8,15.9-11.5,3.2-2.7,5.4-4.1,7.6-6.2l8.3-10c-3.2-27.3.2-25.3-17.4-39.4-11.2-8.9-16-18.8-29.6-25.5l15.3,92.6"/>
  <path class="st22" d="M2253.2,1113.8v77.4c0,10.7.2,5.4,5.4,8.8,17.1-9.5-2.8-63.5,10.8-100.3,5.7-15.1,28.3-71.5,24.4-82-14.4,0-13.1,14.7-23.4,44.2-3.8,10.7-17.2,42.1-17.2,51.8"/>
  <path class="st22" d="M556.6,1034.8c-3.7-11.4-2-17-14.4-16.9-4.1,9.2,19.1,67.8,24.4,82,13.7,36.7-6.2,90.7,10.8,100.3,5.2-3.4,5.4,1.8,5.4-8.8,0-89.4,7-59.8-17.2-129.2-3.1-8.8-5.6-16.7-9-27.3"/>
  <path class="st18" d="M1348.5,2136.5c5.8-5.5.9,6.8,5.5-8.8l3.4-32.1c1.5-12.6,4.2-30.8,6.4-42.8,8.8-48,21.2-59.9,7.2-75.6-16.7,13.6-28.1,120.5-29.9,144.2-1,13.6-1.1,9.7,7.3,15.1"/>
  <path class="st18" d="M1012.1,1308.1c.8,6.8,67.4,115,74,122l12.5-14.2-61.5-89.8c-6.9-10.9-12-24.8-25.1-17.9"/>
  <path class="st9" d="M2072.9,700c7.7-2.7,56.3-30.7,63.6-36.9-2.8-13.9-9.4-30.8-18.9-38.1-18.8,8.6-37.8,50.3-44.7,75"/>
  <path class="st5" d="M699.5,663.1c7.3,6.1,56.1,34.2,63.6,36.8-7-24.7-25.8-66.3-44.7-74.9-9.8,7.6-16.2,24.4-18.9,38.1"/>
  <path class="st23" d="M1494.9,2121.4c-2.6-34.4-9.5-74.8-16.5-108.5-2.2-10.7-4.9-28.7-13.4-35.7-11.5,13.1-7,13.5-1.7,34.1,8.1,31.5,15,74.6,17.6,106.5.8,9.8.1,12.5,6.6,18.7,8.5-5.4,8.4-1.5,7.4-15.1"/>
  <path class="st9" d="M734.9,1442.9l3.2,11.8c9.5-4,21.8-12.6,32.2-18l65.6-33.9c4.2-2.1,12.7-5.6,16.8-8.3,9-6,6.9-5.1,5.7-17.4-11.6-1.2-21.6,8.9-31.7,13.6-20.1,9.3-83.6,40.4-91.8,52.2"/>
  <path class="st5" d="M872.5,1260.2c6.9,3.7,42.5,31.1,49.1,38.9,4,15.5,3.3,41.6.7,57.9,5.9-7.1,3.7-20.8,3.6-30.2,0-11.4-.4-21.9-.8-33.2-.7-19.3,1.8-46.8-1.1-64.6-10.4,3.5-28.6,15.5-39.3,20.8-12,5.9-7.6,0-12.2,10.4"/>
  <path class="st24" d="M864.8,1788.5c-3.3-8.3-10.6-20.2-16.4-25.6-12.9,1.3-24.9,21.2-47.5,12.4-6.2-2.4-29.6-19.3-44.9-26.6,3.1,14.1,9.8,15.2,20.9,22.8,44.2,30.5,55.4,43.9,87.9,16.9"/>
  <path class="st24" d="M1987.6,1762.9c-5.8,5.5-13.1,17.4-16.4,25.6,31.6,26.1,41.5,14.8,86.3-15.8,11-7.5,19.4-9.8,22.5-24-14.7,7-38.6,24.1-44.9,26.6-22.6,8.8-34.6-11.2-47.5-12.4"/>
  <path class="st9" d="M2098.1,1455.9l3.3-16.1c-8.3-4.1-18.1-10.6-28.3-16l-61.8-32.3c-11.3-5.2-20.2-13.7-31.9-15.1-8.7,19.9,15,23.1,53.9,43,21.3,10.9,45.8,22.7,64.8,36.5"/>
  <path class="st5" d="M1568.2,1843.9c-6.8-17.6-64.6-82.5-77.7-91.6-5.4,18.1-5.7,14.5,4,28.7,5.9,8.8,12.4,21.9,17,27.3,6.5,7.7,48.6,32.7,56.7,35.5"/>
  <path class="st18" d="M1120.4,1442c7,3.6,82.1,22.9,100,27.6,17.1,4.5,21.3,7,22.8-12.6l-116.3-27.1c-3.1,9.2-1.4,5-6.5,12"/>
  <path class="st23" d="M1592.7,1456.3c1.7,19.1,3.9,18.3,20.7,13.9,11.6-3,23-6.7,35.4-9.8,14.6-3.6,55.7-12.6,66.9-18.4l-7.4-10.9-115.6,25.2"/>
  <path class="st26" d="M1267.6,1844.1c8.4-2.7,47.6-25.7,55.1-34.8,6-7.3,10.9-17.9,17-27.2,8.8-13.6,11.7-11.3,5.2-28.9-11.9,6.9-71,73.6-77.3,90.9"/>
  <path class="st24" d="M1804.1,586.5c3.8,6.1,8.2,11.3,11.6,16,2.5-13.3,7.7-25.9,12.4-38.4,7.7-20.3,22.2-48.6,33.9-68.3,6.5-11,16.8-21.8,19.3-31.9l-10-8.8c-1.4,13.1-21.3,30.8-36.4,63.3-7.9,16.9-16.8,33.7-22,52.2-3.8,13.3-2.4,11.2-8.7,15.8"/>
  <path class="st24" d="M2101.4,1517.6c-13.6-12-66.1,9.9-80.3-5.5-6.1-12-3-34.3-3-49.8,0-10.3.3-17.1,1.2-27,1.2-13,1.5-10.7-10.6-14.5-1.2,14.3-3.6,93.2,2.1,100.6,6.1,7.9,56.1,4.9,70,3.5.7,0,12-1.5,12.1-1.5,8.4-2.5,5.2,1.7,8.6-6"/>
  <path class="st24" d="M817.9,1442.9c0,80.1,5.6,73.5-33.1,73.3l-38.8-2.4c-17.8.3-6.2-.8-11.3,3.8,1.9,4.3-1.5,5.1,18.2,7.2l48.7,1.1c32.4.3,26.5-3.1,26.5-52.6,0-17.4.8-35.1-.6-52.5-19.1,5.9-9.4,5.8-9.4,22.1"/>
  <path class="st16" d="M2065.5,1211.2c6.3,3.9,17.4,12.6,22.8,14.4l6.6-94.2c-11.7,7.1-19.3,17.3-24.8,31.9-4.6,12.3-4.6,31.9-4.7,47.9"/>
  <path class="st24" d="M735.2,1536.9c-.1,15.5,14.8,12.9,55,15.4,21.3,1.3,42.3,4.5,65.5,4.5-7-8.5-16.7-15.4-24-22.8-26.9,8.3-85.4-1.6-96.6,3"/>
  <path class="st24" d="M1980.3,1556.7c32.8,0,66.6-5.4,98.6-7.4,15.2-.9,22.1,1.8,22-12.4-11.2-4.6-69.7,5.3-96.6-3-7.3,7.4-17,14.3-24,22.8"/>
  <path class="st5" d="M1883.1,1420.8c19.6-11.8,60.3-15.4,72-25.2-6.8-5.7-41-25.3-50.4-26.8-7,17.1-17.1,34.9-21.6,51.9"/>
  <path class="st24" d="M808.1,1695.7l.3-26.1-68.6-50.4c0,13.1,1,20.3,9.5,27.8,10.8,9.6,52.2,46,58.9,48.7"/>
  <path class="st24" d="M2028,1669.6l-.3,26.1c9.7-3.8,29.1-23.4,38.1-31,23.7-20.1,30.4-20.9,30.5-45.5l-68.3,50.4"/>
  <path class="st5" d="M431.2,508.5c-.5-9.1-1.6-19.1-2.3-25.8l-1.1-19.8c.6-5.5-1.5-.6,1.4-4.8-4.9-6.8-22.7-17.8-31-20.9,5,60.6-3.5,54.4,32.9,71.4"/>
  <path class="st23" d="M1780.6,1355.4c-11.2,9.7-31.5,45.4-42.4,59.9,3.4,7.3,5,10.2,11.6,14.7,6.2-6.5,17.5-27,25.6-38.9l24.5-40.9-19.3,5.3"/>
  <path class="st24" d="M2113,1448.5c4.5,9,9.1,12.6,15.6,26.6,8.5-5,13.2-17.6,21.4-30.3,9.1-14.2,4.6-23.7-7.6-31.9-7.1,3-24.4,27.9-29.4,35.7"/>
  <path class="st24" d="M707.3,1475.1c6.5-13.9,11.1-17.6,15.6-26.6-4.8-7.4-8.3-11.6-13.8-18.6-5.5-7-8-13.8-15.7-17.1-12.1,8.3-16.7,17.7-7.6,31.9,8.5,13.2,13,25.4,21.4,30.3"/>
  <path class="st13" d="M1652.1,1816.3c2.5-11.9.4-11.8-2.5-22-4.8,5.3-8.2,8.2-12.7,14.1-5.7,7.4-6.3,10.8-11.9,18.3-8.5,11.4-19,22.7-27.4,33.7,1,4.9.3,4.7,2.3,8.6,5.5,10.7.3,3.4,7.6,8.6,8.9-21.8,32.5-38.8,44.6-61.3"/>
  <path class="st9" d="M2111.3,1594.6c11.3-4.7,11-3.6,11.3-18.8l2.2-77.6c0-11.8-3.2-10.2-8.3-20.9-4.6-9.8-5.8-15-14.8-17.6,23.1,28.4,5,92.3,9.5,134.9"/>
  <path class="st10" d="M711.1,1498.2l2.2,77.6c.3,15.2,0,14.3,11.4,18.8,2.7-38.3-12.7-107,9.5-135-9.6,2.7-23.1,27.5-23.1,38.6"/>
  <path class="st13" d="M1766.7,531c11.2-22.7,17.1-49.5,36.5-79.9,5.4-8.6,10.9-16.1,12.6-25.5-15.4-5-11.7.5-20.3,14.9-16,26.8-36.6,59.8-28.8,90.4"/>
  <path class="st19" d="M1020.9,428.1c16.1,32.9,22.6,43,36.6,75.4,3.7,8.5,9.3,16.9,10.9,26.4,6.2-23.7-3.4-41.9-12.5-63.1-4.5-10.6-9.1-18-15-26.5-5.2-7.5-13.5-22.2-20-12.1"/>
  <path class="st24" d="M823.5,1680.8c-7,9.9,4.5,46-26,23.1-7.3-5.5-12.2-10.1-18.1-15.1-11.8-9.9-20.8-19.9-33.4-28.7-6.2,11.6,8.5,18.7,16.6,26,13.7,12.3,43.5,46.4,58.8,37.1,10.5-6.4,7.3-33.8,2-42.4"/>
  <path class="st24" d="M2012.5,1680.8c-2.6,4.3-23.3,81.6,46.8,19.1,16.2-14.4,36.6-28.7,30.7-39.8-18.8,13-53.7,51.4-66.6,50.6-8.1-.5-6.9-2.5-7.7-10.5-.4-4,.9-13.8-3.1-19.5"/>
  <path class="st18" d="M1251.3,1475.7c15-5.4,53-16.8,64.8-24.5l-3.8-17.2c-54.6,17.4-55.3,15.4-61,41.6"/>
  <path class="st23" d="M1518.9,1450.9l65.8,24.7c-4.7-21.2-3-21.1-22.4-28-13.1-4.7-24.4-9.1-38.5-13.5l-4.8,16.8"/>
  <path class="st13" d="M1764.5,472c4.4-6,9-17.1,14.1-26.3,6.8-12.3,12.4-16.7,16.3-30.1l-32.8-9.9,2.5,66.3"/>
  <path class="st17" d="M1041.8,416.4c3.4,9.3,8.1,20,13,28.6,6.8,12,10.9,15.7,16.6,26.5l2.8-64.4-32.4,9.3"/>
  <path class="st15" d="M1081.4,530.1c9.9,5.1,54.3,10.2,70.1,12.7,15.6,2.5,16,4.6,20.6-6.9-8.6-7.1-74.4-12.9-85.9-15.4l-4.7,9.6"/>
  <path class="st15" d="M1663.9,535.9c5.1,12.7,4.9,9.6,42.1,3.6,12.4-2,38.1-4,47.9-9.1l-3.5-10.1c-24.1,5.4-61.5,8.1-76,11.3-8.6,1.9-7.1,1.4-10.6,4.3"/>
  <path class="st15" d="M734.9,1561.8c5.8,8.6,48.2,8.3,69.7,10.8l65.9,5.3c7.8-1.9,3.3.7,6.6-5.1-9.7-3.7-82-8.5-106.4-11.1-10.2-1.1-29.2-4-35.8,0"/>
  <path class="st24" d="M877.8,1778.9c-4-27.1.8-53.5-6.9-62.5-4-4.6-9.8-7.3-15.1-9.6-.2,27.5-3.5,44.9,14.3,65.7,4.2,4.9,2.3,3,7.7,6.5"/>
  <path class="st24" d="M1958.2,1778.9c8.4-5.5,18.7-22.4,20.4-27.3,3.4-9.6,1.6-33.5,1.6-44.8-14.9,6.5-19.2,10.6-19.5,26.4-.4,18.7.3,27-2.5,45.8"/>
  <path class="st15" d="M1958.9,1572.9c6.4,11.4,9.3,3.8,31.5,2.7l75.8-6.4c12.1-1.6,28.4,2.1,34.9-7.4-3.2-2,.1-1.9-5.9-2.4-6.9-.6-4.5.4-8.9,1-25.5,3.2-113.2,6.9-127.4,12.5"/>
  <path class="st9" d="M1920.4,1930c12.6-3.9,60.4-27.9,68.7-34.7l-5.8-17.7-32.1,23.8c-6.2,4-9.4,7.5-15.6,12.1-8.6,6.4-11.6,5.9-15.2,16.5"/>
  <path class="st24" d="M1649.6,1794.3c3,10.3,5,10.1,2.5,22l42.2-55.6-10.7-5.6c-10.3,5-26.5,28.6-34,39.2"/>
  <path class="st13" d="M2145.3,865c3.6,10.6,6.4,10.3,11.6,29.4,2.8,10.1,4.3,27.8,7.2,35.9,4.3-46.8,5.4-37.7.4-81.2-6,5-12.9,10.8-19.3,15.8"/>
  <path class="st5" d="M1336.5,1541.5l-.2-24.5c6.7,8.3,13.6,11.3,20.4,20,10.8-5.5,23.7-13.6,29.9-23.4l-53.4.5c-.4,15.7-2.4,22.7,3.2,27.4"/>
  <path class="st18" d="M1780.6,1355.4l19.3-5.3c2.5-2.5,1.4-1,4.3-5,5.3-7.4,18.9-30.5,19.6-37-10.2-3.9-7.1-5.7-13.7,1.4l-29.6,45.9"/>
  <path class="st1" d="M1896.4,1219c2-3.1,1.4-.4,2.5-6,.5-2.6.5-4.9.8-7.6.8-7,1.3-7.9,1.8-14.3.7-8.5,2.6-22.2,1.7-28.6h-10.3c-1.2,9.6-2.3,22.3-3.1,31.7-3,33-5.5,23.8,6.8,24.9"/>
  <path class="st14" d="M939.6,1219.1c11.3-1,9.9,8,7.1-22.2-1-10.3-2.1-23.9-3.5-34.1l-10.2-.6c-1,6.8.9,20.2,1.6,28.8.5,5.9.8,8.2,1.6,14.5,1,8.4.4,8.9,3.4,13.6"/>
  <path class="st23" d="M1468,1449l10.8.7h22.1c0-.1,6.2-.1,6.2-.1l5.3-18.4c-27.3-1.7-34.1,1.5-44.4,17.8"/>
  <path class="st6" d="M1329,1449.6l39.1-.2c-10.5-16.7-17.1-20-44-18.5l4.9,18.6"/>
  <path class="st23" d="M1409.7,1960.6c16.7,0,20.7,3,30.1-16.5h-43.6c2.5,5.2,7,13,13.5,16.5"/>
  <path class="st5" d="M890.6,840.4c5.7-2.1,6.7-2.3,11.7-4.7,12.8-6,13.5-10.8,18.8-30.3l-14-8.1c-1.8,14.9-9.2,30.1-16.6,43.1"/>
  <path class="st18" d="M1830,1296.8l.3-39.7c-15.7,2.1-12.4,2-12.2,19.9.2,17.3-2.5,15.5,11.9,19.8"/>
  <path class="st18" d="M1005.9,1296.8c13.2-3.9,11.5-1.9,11.9-16.9.5-16.8,3.2-18.8-9.1-22.9-1.8,2.9-1.9.7-2.8,6.2-.4,2.4-.3,8.2-.3,10.9,0,7.6.1,15.1.3,22.7"/>
  <path class="st9" d="M1438.2,1971c0,4.9.7,4.4,2,8,12.9-4,14.8-6.7,21.6-16.3-2.3-8.4-.7-7.6-7.9-12.8-3.7,2.8-15.7,13.5-15.7,21.1"/>
  <path class="st15" d="M1374.2,1962.7c6.9,9.6,8.7,12.3,21.6,16.3,5-13.7-5.7-22.9-13.7-29-7.3,5.2-5.6,4.3-7.9,12.8"/>
  <path class="st5" d="M746.7,1764.8c-1.3-13.9-2.9-13.3-12.6-19.6-10.8-7.1-9.5-8.3-19.5-12.5,4,12.4,19.5,27.7,32.1,32.1"/>
  <path class="st9" d="M2089.3,1764.8c12.2-4.3,28.2-20,32.1-32.1-9.9,4.2-9.5,5.9-19.5,12.5-9.7,6.3-11.3,5.7-12.6,19.6"/>
  <path class="st3" d="M1773.3,1859.3c6.9,1.4,9.5,1,15.3-1.1,13-4.8,7.3,1.4,8.3-11.6-11.9,1.6-22.7.8-23.6,12.7"/>
  <path class="st15" d="M1062.7,1859.3c-.9-11.9-11.7-11.1-23.5-12.7.9,11.1-3,7.6,8.1,11.7,5.7,2.1,8.7,2.4,15.5,1"/>
  <path class="st0" d="M1343.8,2145.9c3.8,9.5,10.3,19.9,20.4,20.3-9.7-13.7-.3-14-20.4-20.3"/>
  <path class="st26" d="M1471.8,2166.2c10-.5,16.5-10.8,20.3-20.2-20,6.4-10.6,6.9-20.3,20.2"/>
  <path class="st20" d="M1113.5,1426.7c-28-1.4-5.2,30.2,0,0"/>
  <path class="st2" d="M1722.5,1426.7c5.4,30.3,27.8-1.3,0,0"/>
</svg>